<svg viewBox="0 0 56 56" xmlns="http://www.w3.org/2000/svg" xmlns:xlink="http://www.w3.org/1999/xlink" width="56.000000" height="56.000000" fill="none">
	<rect id="car-wash(2) 1" width="56.000000" height="56.000000" x="0.000000" y="0.000000" fill="rgb(255,255,255)" fill-opacity="0" />
	<path id="image 22 (Traced)" d="M22.7981 0.943005C22.5836 1.4618 22.2276 3.1801 22.0065 4.76174C21.7412 6.66052 21.46 7.71668 21.1791 7.87047C20.9449 7.99871 20.2022 8.3559 19.5288 8.66433L18.3046 9.22491L15.9052 7.33774C12.7426 4.84966 12.4333 4.71474 11.4164 5.37861C9.41849 6.68286 4.95454 11.4713 4.95454 12.3101C4.95454 12.5089 5.91551 13.8935 7.09013 15.3872L9.22542 18.1028L8.44505 19.8521L7.66468 21.6018L4.2078 22.1229C1.76784 22.4905 0.644531 22.7865 0.388852 23.1286C-0.153813 23.8548 -0.117867 32.3114 0.430305 32.8601C0.658155 33.0882 2.32181 33.4761 4.24606 33.7503C6.12249 34.0172 7.67541 34.2691 7.69715 34.3097C7.71889 34.3503 8.07226 35.1831 8.48245 36.1606L9.22832 37.9381L7.24 40.513C6.14626 41.9292 5.24994 43.3803 5.24791 43.7375C5.2424 44.7603 11.3181 51.0674 12.3089 51.0674C12.5411 51.0674 13.9998 50.1058 15.5507 48.9304L18.3707 46.7937L20.0222 47.5069L21.6734 48.2201L22.1842 51.6828C22.4868 53.7356 22.8686 55.3193 23.1216 55.5726C23.462 55.9132 24.4879 56 28.1807 56L32.8131 56L33.2027 55.057C33.4169 54.5385 33.7581 52.8736 33.961 51.3575C34.1637 49.8414 34.4231 48.4922 34.5373 48.3593C34.6518 48.2262 35.4044 47.8115 36.2103 47.4381L37.675 46.7585L40.0849 48.6541C43.2565 51.1489 43.5681 51.2856 44.5772 50.6237C46.5273 49.3447 51.0463 44.5104 51.0463 43.7032C51.0463 43.4992 50.0702 42.0885 48.8771 40.5678L46.7079 37.8029L47.5381 36.0872L48.3683 34.3715L51.809 33.8678C54.2684 33.5077 55.3528 33.2248 55.612 32.8755C56.1509 32.1483 56.119 23.6889 55.5752 23.1445C55.3557 22.9249 53.6274 22.5152 51.7342 22.2343L48.2924 21.7236L47.5387 19.8846L46.785 18.0459L48.7672 15.4789C49.9702 13.9208 50.7506 12.6322 50.7529 12.2005C50.7555 11.6782 49.885 10.6165 47.4813 8.21082C45.6799 6.40779 43.9957 4.93264 43.738 4.93264C43.4806 4.93264 42.001 5.89422 40.4501 7.06964L37.6301 9.20634L35.9786 8.49314L34.3275 7.77994L33.8167 4.31722C33.514 2.26437 33.1323 0.680705 32.8792 0.427399C32.5389 0.0867563 31.513 0 27.8201 0L23.1877 0L22.7981 0.943005ZM31.755 19.4044C35.7212 21.1605 38.0919 25.8047 37.1306 29.9359C35.4044 37.3578 26.2869 39.8865 21.1936 34.3559C18.4913 31.4215 17.8794 27.2018 19.6491 23.7028C20.2347 22.5451 21.9395 20.7215 23.1179 19.9926C25.5054 18.5157 29.1823 18.2653 31.755 19.4044Z" fill="rgb(255,255,255)" fill-rule="evenodd" />
</svg>
