<svg viewBox="0 0 56 56" xmlns="http://www.w3.org/2000/svg" xmlns:xlink="http://www.w3.org/1999/xlink" width="56.000000" height="56.000000" fill="none">
	<rect id="lift 1" width="56.000000" height="56.000000" x="0.000000" y="0.000000" fill="rgb(255,255,255)" fill-opacity="0" />
	<path id="Vector" d="M17.3359 21.7812C17.3359 23.0348 16.3199 24.0508 15.0664 24.0508C13.8129 24.0508 12.7969 23.0348 12.7969 21.7812C12.7969 20.5277 13.8129 19.5117 15.0664 19.5117C16.3199 19.5117 17.3359 20.5277 17.3359 21.7812Z" fill="rgb(255,255,255)" fill-rule="evenodd" />
	<path id="Vector" d="M42.3809 21.7812C42.3809 23.0348 41.3649 24.0508 40.1113 24.0508C38.8578 24.0508 37.8418 23.0348 37.8418 21.7812C37.8418 20.5277 38.8578 19.5117 40.1113 19.5117C41.3649 19.5117 42.3809 20.5277 42.3809 21.7812Z" fill="rgb(255,255,255)" fill-rule="evenodd" />
	<path id="Vector" d="M46.4874 33.3246C46.7557 32.6876 46.9044 31.9877 46.9044 31.2542L46.9044 30.2518L49.8519 30.2518L49.8519 18.9721C49.8519 16.5983 48.457 14.5446 46.4438 13.5862L41.2468 -0.0117188L14.5345 -0.0117188L9.33746 13.5862C7.32428 14.5446 5.92932 16.5983 5.92932 18.9721L5.92932 30.2518L8.87689 30.2518L8.87689 31.2542C8.87689 31.9877 9.02557 32.6876 9.29388 33.3246L0 33.3246L0 43.4255L10.2975 43.4255L24.239 50.4358L13.1972 55.9883L20.501 55.9883L27.8906 52.2721L35.2803 55.9883L42.5836 55.9883L31.5423 50.4358L45.4838 43.4255L56 43.4255L56 33.3246L46.4874 33.3246ZM16.7933 3.26953L38.9879 3.26953L42.7114 13.0107L13.0703 13.0107L16.7933 3.26953ZM9.21057 26.9706L9.21057 18.9721C9.21057 17.4943 10.4128 16.292 11.8907 16.292L43.8901 16.292C45.3684 16.292 46.5707 17.4943 46.5707 18.9721L46.5707 26.9706L34.6061 26.9706L34.6061 20.1406L21.1752 20.1406L21.1752 26.9706L9.21057 26.9706ZM43.6231 30.2518L43.6231 31.2542C43.6231 32.3958 42.6943 33.3246 41.5527 33.3246C40.4115 33.3246 39.4827 32.3958 39.4827 31.2542L39.4827 30.2518L43.6231 30.2518ZM36.2014 30.2518L36.2014 31.2542C36.2014 31.9877 36.3501 32.6876 36.6184 33.3246L19.1628 33.3246C19.4312 32.6876 19.5798 31.9877 19.5798 31.2542L19.5798 30.2518L36.2014 30.2518ZM24.4564 26.9706L24.4564 23.4219L31.3248 23.4219L31.3248 26.9706L24.4564 26.9706ZM16.2986 30.2518L16.2986 31.2542C16.2986 32.3958 15.3698 33.3246 14.2286 33.3246C13.087 33.3246 12.1581 32.3958 12.1581 31.2542L12.1581 30.2518L16.2986 30.2518ZM27.8906 48.5995L17.6013 43.4251L38.18 43.4251L27.8906 48.5995ZM52.7188 40.1439L3.28125 40.1439L3.28125 36.6054L52.7188 36.6054L52.7188 40.1439Z" fill="rgb(255,255,255)" fill-rule="evenodd" />
</svg>
