<svg viewBox="0 0 56 56" xmlns="http://www.w3.org/2000/svg" xmlns:xlink="http://www.w3.org/1999/xlink" width="56.000000" height="56.000000" fill="none">
	<rect id="target 1" width="56.000000" height="56.000000" x="0.000000" y="0.000000" fill="rgb(255,255,255)" fill-opacity="0" />
	<path id="image 20 (Traced)" d="M19.1517 2.4486C18.0283 2.95728 17.273 3.64715 16.0374 5.29392C13.6265 8.50718 12.808 9.13486 9.70891 10.1476C6.70397 11.1294 5.55202 11.876 4.89643 13.2665C4.52117 14.0623 4.44069 14.6484 4.31843 17.475C4.15323 21.2971 4.05773 21.5982 2.13486 24.3613C0.277062 27.0311 0 27.6476 0 29.1128C0 30.578 0.277062 31.1945 2.13486 33.8642C4.05773 36.6273 4.15323 36.9285 4.31843 40.7505C4.44069 43.5772 4.52117 44.1633 4.89643 44.959C5.55202 46.3495 6.70397 47.0962 9.70891 48.0779C12.8887 49.1171 13.4569 49.5391 15.745 52.5629C18.6105 56.3494 19.6379 56.6572 24.4504 55.1708C27.4961 54.2301 28.5039 54.2301 31.5496 55.1708C36.3621 56.6572 37.3895 56.3494 40.255 52.5629C42.5432 49.5391 43.1113 49.1171 46.2911 48.0779C49.2951 47.0964 50.447 46.3501 51.1051 44.959C51.4835 44.159 51.5605 43.5933 51.6762 40.7613C51.8321 36.9504 51.9282 36.6475 53.8651 33.8642C55.7229 31.1945 56 30.578 56 29.1128C56 27.6476 55.7229 27.0311 53.8651 24.3613C51.9282 21.578 51.8321 21.2751 51.6762 17.4642C51.5605 14.6322 51.4835 14.0665 51.1051 13.2665C50.447 11.8754 49.2951 11.1292 46.2911 10.1476C43.203 9.13852 42.382 8.51161 39.988 5.33435C38.5438 3.41745 38.1506 3.0524 36.9651 2.52812C35.7425 1.98728 34.661 2.09183 31.562 3.05009C28.4971 3.99795 27.5 3.99756 24.4381 3.04816C21.6888 2.1956 20.1069 2.01635 19.1517 2.4486ZM32.8618 9.93832C39.8596 11.7133 45.3174 17.1535 47.1868 24.2167C47.6292 25.8878 47.6928 26.5041 47.6928 29.1128C47.6928 31.6987 47.6273 32.3443 47.202 33.9491C45.3203 41.0492 39.9547 46.4314 32.896 48.2995C31.225 48.742 30.6087 48.8055 28 48.8055C25.414 48.8055 24.7684 48.7401 23.1636 48.3148C16.0636 46.4331 10.6814 41.0674 8.81322 34.0088C8.37077 32.3378 8.30724 31.7215 8.30724 29.1128C8.30724 26.5268 8.3727 25.8812 8.79801 24.2764C10.8909 16.3799 17.3507 10.6033 25.3526 9.47315C27.329 9.19397 30.7672 9.40691 32.8618 9.93832ZM25.7267 11.9788C19.8181 12.8046 14.4671 16.8508 12.1823 22.2205C11.1441 24.6601 10.822 26.2574 10.8116 29.0165C10.8016 31.7272 11.0601 33.1848 11.9516 35.4382C13.5828 39.5618 17.1245 43.2356 21.0994 44.9271C23.5476 45.9689 25.1422 46.2908 27.9037 46.3012C32.6325 46.3189 36.3841 44.8504 39.7856 41.6506C42.2855 39.2988 43.8659 36.6227 44.7854 33.1842C45.3024 31.2505 45.348 27.3226 44.8757 25.3847C42.9933 17.66 36.5955 12.2865 28.8233 11.9022C27.788 11.851 26.3946 11.8855 25.7267 11.9788ZM32.1396 15.2485C36.8866 16.744 40.4173 20.3024 41.8841 25.0695C42.4796 27.0056 42.5297 31.0882 41.9794 32.8673C40.364 38.0908 36.9596 41.4928 31.7545 43.0847C30.1062 43.5889 25.8651 43.5932 24.2455 43.0922C21.5078 42.2456 19.6177 41.1395 17.7965 39.3182C13.0506 34.5724 12.203 27.3383 15.7055 21.474C16.5353 20.0845 18.9717 17.6481 20.3613 16.8183C21.7373 15.9965 23.4825 15.2911 24.9897 14.9476C26.7383 14.5492 30.4102 14.7036 32.1396 15.2485ZM27.2728 18.6304C26.9324 18.8688 26.8448 19.1178 26.8448 19.8465L26.8448 20.7628L25.7589 21.2129C23.6519 22.0861 22.5493 23.5465 22.5464 25.4675C22.5433 27.4827 23.8674 28.9133 26.7237 29.9805C29.1418 30.8839 29.9254 31.4735 29.9254 32.3886C29.9254 33.2851 29.1327 33.8082 27.6536 33.8877C26.9441 33.926 25.9735 33.8565 25.497 33.7335C23.7956 33.2941 23.6284 33.2918 23.2164 33.7038C23 33.9202 22.7636 34.4137 22.691 34.8007C22.489 35.877 23.0651 36.3302 25.1516 36.7369L26.8278 37.0636L26.8844 38.2321C26.9353 39.2793 26.9959 39.4313 27.4705 39.6958C27.9463 39.9613 28.0537 39.9613 28.5295 39.6958C29.012 39.4266 29.064 39.2884 29.1152 38.1366L29.1714 36.8728L30.2735 36.5665C32.6313 35.9109 33.7761 34.4597 33.7761 32.1264C33.7761 30.5995 33.4889 29.8178 32.602 28.931C32.0086 28.3374 31.2776 27.9479 28.2218 26.5965C27.2081 26.1483 26.4597 25.4524 26.4597 24.958C26.4597 24.8194 26.6545 24.4815 26.8929 24.2073C27.4703 23.5428 28.4286 23.414 30.4525 23.7288C32.0816 23.9822 32.1016 23.9805 32.4557 23.5432C32.9372 22.9485 32.9276 21.7667 32.4376 21.3233C32.2125 21.1196 31.4786 20.8991 30.6085 20.7738L29.1552 20.5645L29.1552 19.7473C29.1552 18.904 28.6877 18.3307 28 18.3307C27.8354 18.3307 27.5081 18.4656 27.2728 18.6304Z" fill="rgb(255,255,255)" fill-rule="evenodd" />
</svg>
