<svg viewBox="0 0 56 56" xmlns="http://www.w3.org/2000/svg" xmlns:xlink="http://www.w3.org/1999/xlink" width="56.000000" height="56.000000" fill="none">
	<rect id="spray-paint-gun 1" width="56.000000" height="56.000000" x="0.000000" y="0.000000" fill="rgb(255,255,255)" fill-opacity="0" />
	<path id="image 19 (Traced)" d="M21.2325 1.83153C18.4879 3.98898 14.127 6.2095 11.2904 6.89427C10.1796 7.16239 7.69813 7.4678 5.77556 7.57282L2.28027 7.76389L2.28493 21.9321C2.28866 33.5464 2.37503 36.4632 2.76433 38.1151C3.87009 42.806 6.81141 45.8644 15.174 51.0185C17.0537 52.1771 19.7086 53.8216 21.0738 54.6729C23.4266 56.1403 23.5969 56.1971 24.336 55.765C35.7732 49.0773 40.7922 45.3748 42.8701 42.0914C44.7992 39.0435 44.8451 38.5846 44.8451 22.446L44.8451 7.75954L41.5052 7.58494C34.87 7.23789 31.2778 5.77205 24.3394 0.581306L23.5627 0L21.2325 1.83153ZM26.1874 8.59407C27.6002 9.44319 29.8247 10.5493 31.1306 11.0523C33.4253 11.9359 37.6079 12.9534 38.9457 12.9534L39.5969 12.9534L39.5025 24.9927C39.4152 36.1404 39.3642 37.1125 38.8162 38.1195C37.7676 40.0464 36.966 40.935 34.7476 42.632C32.4261 44.4076 24.1282 49.6151 23.6208 49.6151C23.4533 49.6151 21.9039 48.7492 20.1774 47.691C12.2718 42.8457 9.64369 40.679 8.45467 38.0269C7.73759 36.4278 7.72982 36.2876 7.72361 24.7669L7.71739 13.123L10.3583 12.6309C14.731 11.8163 18.9346 10.1379 22.0021 7.98231C22.6897 7.49918 23.3347 7.09187 23.4353 7.07695C23.5363 7.06235 24.7747 7.74494 26.1874 8.59407ZM26.3627 24.4487L20.7739 30.0353L18.3605 27.6358L15.9467 25.2363L14.1646 27.0184L12.3824 28.8006L16.6517 33.0698L20.9209 37.3387L28.2225 30.0421C32.2385 26.0289 35.5244 22.6517 35.5244 22.5376C35.5244 22.3183 32.2708 18.8547 32.0692 18.8593C32.0045 18.8606 29.4364 21.376 26.3627 24.4487Z" fill="rgb(255,255,255)" fill-rule="evenodd" />
</svg>
