<svg viewBox="0 0 270 26.269" xmlns="http://www.w3.org/2000/svg" xmlns:xlink="http://www.w3.org/1999/xlink" width="270.000000" height="26.269043" fill="none" customFrame="#000000">
	<path id="profsupport" d="M21.2705 8.79277C21.2705 15.0316 16.564 17.0383 11.2007 17.0383L8.13605 17.0383C7.51581 17.0383 7.04151 17.5126 7.04151 18.1328L7.04151 24.8824C7.04151 25.3567 6.64018 25.7946 6.1294 25.7946L0.912113 25.7946C0.474299 25.7946 0 25.3203 0 24.8824L0 3.539C0 2.1161 0.80266 1.05805 2.07962 0.547267C2.44446 0.437815 2.80931 0.364845 3.17415 0.364845L11.2007 0.364845C16.9288 0.364845 21.2705 2.73634 21.2705 8.79277ZM14.1925 8.75629C14.1925 6.67667 13.0979 5.58213 11.0183 5.58213L4.85244 5.58213C5.03486 5.58213 5.25377 5.61862 5.50916 5.69159C5.76455 5.80104 5.98346 5.91049 6.20237 6.09292C6.64018 6.53073 6.93206 6.93206 6.93206 7.58878L6.93206 10.7265C6.93206 11.0548 7.04151 11.3467 7.2969 11.5291C7.51581 11.748 7.7712 11.8575 8.06308 11.8575L11.0183 11.8575C12.9885 11.8575 14.1925 10.7629 14.1925 8.75629Z" fill="rgb(0,0,255)" fill-rule="evenodd" />
	<path id="profsupport" d="M45.5586 25.831L40.4143 25.831C39.7211 25.831 39.2468 25.5027 38.9549 24.8824L35.2335 17.5855C35.0146 17.1842 34.6862 17.0018 34.2484 17.0018L29.4689 17.0018C30.0892 17.0018 30.5635 17.2207 30.9283 17.622C31.2567 18.0598 31.4391 18.4977 31.4391 18.9355L31.4391 24.9554C31.4391 25.2108 31.3661 25.4297 31.1837 25.5757C31.0013 25.7581 30.7824 25.831 30.527 25.831L25.5286 25.831C25.1273 25.831 24.6165 25.3932 24.6165 24.9554L24.6165 3.57548C24.6165 1.78774 26.0029 0.437815 27.7907 0.437815L35.5254 0.437815C41.144 0.437815 45.741 2.73634 45.741 8.75629C45.741 11.7115 44.3911 14.083 41.8372 15.5424C41.6548 15.6519 41.5453 15.7978 41.5453 15.9802C41.5088 16.1626 41.5453 16.2721 41.6183 16.3816L46.2153 24.7C46.2883 24.846 46.3248 24.9919 46.3248 25.1014C46.3248 25.2838 46.2518 25.4662 46.1059 25.6121C45.9235 25.7581 45.741 25.831 45.5586 25.831ZM38.6995 8.7198C38.6995 7.73472 38.4077 6.96854 37.8239 6.42128C37.2037 5.91049 36.4375 5.6551 35.4889 5.6551L29.2136 5.6551C30.2716 5.6551 31.2202 6.49425 31.2202 7.58878L31.2202 10.544C31.2202 10.8359 31.3297 11.0913 31.5486 11.3102C31.731 11.5291 31.9864 11.6386 32.3147 11.6386L35.4889 11.6386C37.3861 11.6386 38.6995 10.69 38.6995 8.7198Z" fill="rgb(0,0,255)" fill-rule="evenodd" />
	<path id="profsupport" d="M45.5586 25.831L40.4143 25.831C39.7211 25.831 39.2468 25.5027 38.9549 24.8824L35.2335 17.5855C35.0146 17.1842 34.6862 17.0018 34.2484 17.0018L29.4689 17.0018C30.0892 17.0018 30.5635 17.2207 30.9283 17.622C31.2567 18.0598 31.4391 18.4977 31.4391 18.9355L31.4391 24.9554C31.4391 25.2108 31.3661 25.4297 31.1837 25.5757C31.0013 25.7581 30.7824 25.831 30.527 25.831L25.5286 25.831C25.1273 25.831 24.6165 25.3932 24.6165 24.9554L24.6165 3.57548C24.6165 1.78774 26.0029 0.437815 27.7907 0.437815L35.5254 0.437815C41.144 0.437815 45.741 2.73634 45.741 8.75629C45.741 11.7115 44.3911 14.083 41.8372 15.5424C41.6548 15.6519 41.5453 15.7978 41.5453 15.9802C41.5088 16.1626 41.5453 16.2721 41.6183 16.3816L46.2153 24.7C46.2883 24.846 46.3248 24.9919 46.3248 25.1014C46.3248 25.2838 46.2518 25.4662 46.1059 25.6121C45.9235 25.7581 45.741 25.831 45.5586 25.831ZM38.6995 8.7198C38.6995 7.73472 38.4077 6.96854 37.8239 6.42128C37.2037 5.91049 36.4375 5.6551 35.4889 5.6551L29.2136 5.6551C30.2716 5.6551 31.2202 6.49425 31.2202 7.58878L31.2202 10.544C31.2202 10.8359 31.3297 11.0913 31.5486 11.3102C31.731 11.5291 31.9864 11.6386 32.3147 11.6386L35.4889 11.6386C37.3861 11.6386 38.6995 10.69 38.6995 8.7198Z" fill="rgb(0,0,255)" fill-rule="evenodd" />
	<path id="profsupport" d="M60.4218 26.2689C53.9275 26.2689 49.294 23.2042 49.0751 16.3451C49.0386 15.6519 49.0386 14.6303 49.0386 13.2074C49.0386 11.7845 49.0386 10.7265 49.0751 10.0332C49.294 3.24712 53.964 0 60.4218 0C66.8796 0 71.5131 3.24712 71.732 10.0332C71.7685 11.4561 71.805 12.5142 71.805 13.2074C71.805 17.0383 71.805 21.0151 68.5943 23.7514C66.5877 25.4297 63.8878 26.2689 60.4218 26.2689ZM60.4218 20.7962C63.3041 20.7962 64.581 18.826 64.654 16.1262C64.6905 14.7033 64.727 13.7182 64.727 13.0979C64.727 12.4777 64.6905 11.4926 64.654 10.1427C64.581 7.40636 63.3406 5.47268 60.4218 5.47268C57.4665 5.47268 56.2261 7.36987 56.1531 10.1427C56.1166 10.8359 56.1166 11.821 56.1166 13.0979C56.1166 14.4114 56.1166 15.433 56.1531 16.1262C56.2261 18.8625 57.5395 20.7962 60.4218 20.7962Z" fill="rgb(0,0,255)" fill-rule="evenodd" />
	<path id="profsupport" d="M60.4218 26.2689C53.9275 26.2689 49.294 23.2042 49.0751 16.3451C49.0386 15.6519 49.0386 14.6303 49.0386 13.2074C49.0386 11.7845 49.0386 10.7265 49.0751 10.0332C49.294 3.24712 53.964 0 60.4218 0C66.8796 0 71.5131 3.24712 71.732 10.0332C71.7685 11.4561 71.805 12.5142 71.805 13.2074C71.805 17.0383 71.805 21.0151 68.5943 23.7514C66.5877 25.4297 63.8878 26.2689 60.4218 26.2689ZM60.4218 20.7962C63.3041 20.7962 64.581 18.826 64.654 16.1262C64.6905 14.7033 64.727 13.7182 64.727 13.0979C64.727 12.4777 64.6905 11.4926 64.654 10.1427C64.581 7.40636 63.3406 5.47268 60.4218 5.47268C57.4665 5.47268 56.2261 7.36987 56.1531 10.1427C56.1166 10.8359 56.1166 11.821 56.1166 13.0979C56.1166 14.4114 56.1166 15.433 56.1531 16.1262C56.2261 18.8625 57.5395 20.7962 60.4218 20.7962Z" fill="rgb(0,0,255)" fill-rule="evenodd" />
	<path id="profsupport" d="M75.995 24.8824L75.995 3.539C75.995 2.69985 76.3963 1.82423 76.9801 1.24047C77.2719 0.985083 77.6003 0.766176 78.0016 0.583754C78.403 0.437815 78.7678 0.364845 79.1691 0.364845L93.7994 0.364845C94.2737 0.364845 94.748 0.839144 94.748 1.31344L94.748 5.1808C94.748 5.43619 94.6386 5.6551 94.4562 5.80104C94.2737 5.98346 94.0548 6.05643 93.7994 6.05643L80.665 6.05643C81.7595 6.05643 82.6717 6.93206 82.6717 8.0266L82.6717 11.1278L91.4279 11.1278C92.0482 11.1278 92.3765 11.4561 92.3765 12.0764L92.3765 15.9073C92.3765 16.1991 92.3036 16.418 92.1211 16.564C91.9387 16.7464 91.7198 16.8194 91.4279 16.8194L80.665 16.8194C81.7231 16.8194 82.6717 17.695 82.6717 18.753L82.6717 24.8824C82.6717 25.1378 82.5987 25.3567 82.4163 25.5392C82.2703 25.7216 82.0514 25.7946 81.7595 25.7946L76.9071 25.7946C76.3598 25.7946 75.995 25.4297 75.995 24.8824Z" fill="rgb(0,0,255)" fill-rule="evenodd" />
	<path id="profsupport" d="M75.995 24.8824L75.995 3.539C75.995 2.69985 76.3963 1.82423 76.9801 1.24047C77.2719 0.985083 77.6003 0.766176 78.0016 0.583754C78.403 0.437815 78.7678 0.364845 79.1691 0.364845L93.7994 0.364845C94.2737 0.364845 94.748 0.839144 94.748 1.31344L94.748 5.1808C94.748 5.43619 94.6386 5.6551 94.4562 5.80104C94.2737 5.98346 94.0548 6.05643 93.7994 6.05643L80.665 6.05643C81.7595 6.05643 82.6717 6.93206 82.6717 8.0266L82.6717 11.1278L91.4279 11.1278C92.0482 11.1278 92.3765 11.4561 92.3765 12.0764L92.3765 15.9073C92.3765 16.1991 92.3036 16.418 92.1211 16.564C91.9387 16.7464 91.7198 16.8194 91.4279 16.8194L80.665 16.8194C81.7231 16.8194 82.6717 17.695 82.6717 18.753L82.6717 24.8824C82.6717 25.1378 82.5987 25.3567 82.4163 25.5392C82.2703 25.7216 82.0514 25.7946 81.7595 25.7946L76.9071 25.7946C76.3598 25.7946 75.995 25.4297 75.995 24.8824Z" fill="rgb(0,0,255)" fill-rule="evenodd" />
	<path id="profsupport" d="M119.199 18.1693C119.199 24.1163 113.069 26.1959 108.107 26.1959C103.401 26.1959 97.3079 24.4081 97.0161 18.8625C97.0161 18.6436 97.089 18.4612 97.2714 18.3152C97.4174 18.1693 97.5998 18.0963 97.8187 18.0963L102.671 18.0963C102.817 18.0963 102.963 18.0963 103.072 18.1328C103.182 18.1693 103.255 18.2058 103.364 18.2423C103.547 18.3517 103.729 18.4977 103.985 18.753C104.787 20.2854 106.466 20.7597 108.107 20.7597C108.946 20.7597 109.932 20.7232 110.698 20.3584C111.099 20.2124 111.427 19.9935 111.719 19.6652C112.011 19.3733 112.157 18.972 112.157 18.4977C112.157 17.1477 110.99 16.7464 109.895 16.3816C109.494 16.2356 108.983 16.0897 108.436 15.9437C103.729 15.0681 97.6728 13.8641 97.6728 7.80769C97.6728 2.18907 103.072 0.0729703 107.852 0.0729703C109.567 0.0729703 111.245 0.328361 112.887 0.912112C115.441 1.97017 118.141 4.2322 118.323 7.18745C118.323 7.36987 118.25 7.5523 118.104 7.73472C117.922 7.91714 117.739 7.99011 117.557 7.99011L112.449 7.99011C111.938 7.99011 111.537 7.7712 111.245 7.33339C111.099 6.82261 110.734 6.38479 110.114 6.01995C109.457 5.69159 108.691 5.50916 107.852 5.50916C106.794 5.50916 105.59 5.6551 104.933 6.56721C104.751 6.85909 104.641 7.22394 104.641 7.66175C104.641 8.35496 105.006 8.90222 105.736 9.30355C106.466 9.70488 107.815 10.1062 109.822 10.5075C114.492 11.4197 119.199 12.5872 119.199 18.1693Z" fill="rgb(0,0,255)" fill-rule="nonzero" />
	<path id="profsupport" d="M119.199 18.1693C119.199 24.1163 113.069 26.1959 108.107 26.1959C103.401 26.1959 97.3079 24.4081 97.0161 18.8625C97.0161 18.6436 97.089 18.4612 97.2714 18.3152C97.4174 18.1693 97.5998 18.0963 97.8187 18.0963L102.671 18.0963C102.817 18.0963 102.963 18.0963 103.072 18.1328C103.182 18.1693 103.255 18.2058 103.364 18.2423C103.547 18.3517 103.729 18.4977 103.985 18.753C104.787 20.2854 106.466 20.7597 108.107 20.7597C108.946 20.7597 109.932 20.7232 110.698 20.3584C111.099 20.2124 111.427 19.9935 111.719 19.6652C112.011 19.3733 112.157 18.972 112.157 18.4977C112.157 17.1477 110.99 16.7464 109.895 16.3816C109.494 16.2356 108.983 16.0897 108.436 15.9437C103.729 15.0681 97.6728 13.8641 97.6728 7.80769C97.6728 2.18907 103.072 0.0729703 107.852 0.0729703C109.567 0.0729703 111.245 0.328361 112.887 0.912112C115.441 1.97017 118.141 4.2322 118.323 7.18745C118.323 7.36987 118.25 7.5523 118.104 7.73472C117.922 7.91714 117.739 7.99011 117.557 7.99011L112.449 7.99011C111.938 7.99011 111.537 7.7712 111.245 7.33339C111.099 6.82261 110.734 6.38479 110.114 6.01995C109.457 5.69159 108.691 5.50916 107.852 5.50916C106.794 5.50916 105.59 5.6551 104.933 6.56721C104.751 6.85909 104.641 7.22394 104.641 7.66175C104.641 8.35496 105.006 8.90222 105.736 9.30355C106.466 9.70488 107.815 10.1062 109.822 10.5075C114.492 11.4197 119.199 12.5872 119.199 18.1693Z" fill="rgb(0,0,0)" fill-rule="nonzero" />
	<path id="profsupport" d="M122.629 16.2356L122.629 3.61197C122.629 3.10119 122.738 2.66337 122.957 2.26204C123.14 1.86071 123.395 1.53235 123.723 1.27696C124.015 1.02157 124.344 0.80266 124.745 0.656722C125.11 0.547267 125.475 0.474299 125.803 0.474299L128.539 0.474299C129.087 0.474299 129.488 0.839144 129.488 1.38641L129.488 16.1626C129.488 18.9355 130.728 20.6502 133.611 20.6502C136.529 20.6502 137.733 18.972 137.733 16.1626L137.733 3.57548C137.733 3.0647 137.843 2.62689 138.062 2.22556C138.536 1.1675 139.74 0.474299 140.908 0.474299L143.644 0.474299C144.191 0.474299 144.592 0.839144 144.592 1.38641L144.592 16.2356C144.592 23.2771 140.032 26.2324 133.647 26.2324C126.897 26.2324 122.629 22.9853 122.629 16.2356Z" fill="rgb(0,0,255)" fill-rule="nonzero" />
	<path id="profsupport" d="M122.629 16.2356L122.629 3.61197C122.629 3.10119 122.738 2.66337 122.957 2.26204C123.14 1.86071 123.395 1.53235 123.723 1.27696C124.015 1.02157 124.344 0.80266 124.745 0.656722C125.11 0.547267 125.475 0.474299 125.803 0.474299L128.539 0.474299C129.087 0.474299 129.488 0.839144 129.488 1.38641L129.488 16.1626C129.488 18.9355 130.728 20.6502 133.611 20.6502C136.529 20.6502 137.733 18.972 137.733 16.1626L137.733 3.57548C137.733 3.0647 137.843 2.62689 138.062 2.22556C138.536 1.1675 139.74 0.474299 140.908 0.474299L143.644 0.474299C144.191 0.474299 144.592 0.839144 144.592 1.38641L144.592 16.2356C144.592 23.2771 140.032 26.2324 133.647 26.2324C126.897 26.2324 122.629 22.9853 122.629 16.2356Z" fill="rgb(0,0,0)" fill-rule="nonzero" />
	<path id="profsupport" d="M170.772 8.79277C170.772 15.0316 166.065 17.0383 160.702 17.0383L157.637 17.0383C157.017 17.0383 156.543 17.5126 156.543 18.1328L156.543 24.8824C156.543 25.3567 156.141 25.7946 155.63 25.7946L150.413 25.7946C149.975 25.7946 149.501 25.3203 149.501 24.8824L149.501 3.539C149.501 2.1161 150.304 1.05805 151.581 0.547267C151.945 0.437815 152.31 0.364845 152.675 0.364845L160.702 0.364845C166.43 0.364845 170.772 2.73634 170.772 8.79277ZM163.694 8.75629C163.694 6.67667 162.599 5.58213 160.519 5.58213L154.353 5.58213C154.536 5.58213 154.755 5.61862 155.01 5.69159C155.266 5.80104 155.485 5.91049 155.703 6.09292C156.141 6.53073 156.433 6.93206 156.433 7.58878L156.433 10.7265C156.433 11.0548 156.543 11.3467 156.798 11.5291C157.017 11.748 157.272 11.8575 157.564 11.8575L160.519 11.8575C162.49 11.8575 163.694 10.7629 163.694 8.75629Z" fill="rgb(0,0,255)" fill-rule="nonzero" />
	<path id="profsupport" d="M170.772 8.79277C170.772 15.0316 166.065 17.0383 160.702 17.0383L157.637 17.0383C157.017 17.0383 156.543 17.5126 156.543 18.1328L156.543 24.8824C156.543 25.3567 156.141 25.7946 155.63 25.7946L150.413 25.7946C149.975 25.7946 149.501 25.3203 149.501 24.8824L149.501 3.539C149.501 2.1161 150.304 1.05805 151.581 0.547267C151.945 0.437815 152.31 0.364845 152.675 0.364845L160.702 0.364845C166.43 0.364845 170.772 2.73634 170.772 8.79277ZM163.694 8.75629C163.694 6.67667 162.599 5.58213 160.519 5.58213L154.353 5.58213C154.536 5.58213 154.755 5.61862 155.01 5.69159C155.266 5.80104 155.485 5.91049 155.703 6.09292C156.141 6.53073 156.433 6.93206 156.433 7.58878L156.433 10.7265C156.433 11.0548 156.543 11.3467 156.798 11.5291C157.017 11.748 157.272 11.8575 157.564 11.8575L160.519 11.8575C162.49 11.8575 163.694 10.7629 163.694 8.75629Z" fill="rgb(0,0,0)" fill-rule="nonzero" />
	<path id="profsupport" d="M195.534 8.79277C195.534 15.0316 190.827 17.0383 185.464 17.0383L182.4 17.0383C181.779 17.0383 181.305 17.5126 181.305 18.1328L181.305 24.8824C181.305 25.3567 180.904 25.7946 180.393 25.7946L175.176 25.7946C174.738 25.7946 174.263 25.3203 174.263 24.8824L174.263 3.539C174.263 2.1161 175.066 1.05805 176.343 0.547267C176.708 0.437815 177.073 0.364845 177.438 0.364845L185.464 0.364845C191.192 0.364845 195.534 2.73634 195.534 8.79277ZM188.456 8.75629C188.456 6.67667 187.361 5.58213 185.282 5.58213L179.116 5.58213C179.298 5.58213 179.517 5.61862 179.773 5.69159C180.028 5.80104 180.247 5.91049 180.466 6.09292C180.904 6.53073 181.196 6.93206 181.196 7.58878L181.196 10.7265C181.196 11.0548 181.305 11.3467 181.56 11.5291C181.779 11.748 182.035 11.8575 182.327 11.8575L185.282 11.8575C187.252 11.8575 188.456 10.7629 188.456 8.75629Z" fill="rgb(0,0,255)" fill-rule="nonzero" />
	<path id="profsupport" d="M195.534 8.79277C195.534 15.0316 190.827 17.0383 185.464 17.0383L182.4 17.0383C181.779 17.0383 181.305 17.5126 181.305 18.1328L181.305 24.8824C181.305 25.3567 180.904 25.7946 180.393 25.7946L175.176 25.7946C174.738 25.7946 174.263 25.3203 174.263 24.8824L174.263 3.539C174.263 2.1161 175.066 1.05805 176.343 0.547267C176.708 0.437815 177.073 0.364845 177.438 0.364845L185.464 0.364845C191.192 0.364845 195.534 2.73634 195.534 8.79277ZM188.456 8.75629C188.456 6.67667 187.361 5.58213 185.282 5.58213L179.116 5.58213C179.298 5.58213 179.517 5.61862 179.773 5.69159C180.028 5.80104 180.247 5.91049 180.466 6.09292C180.904 6.53073 181.196 6.93206 181.196 7.58878L181.196 10.7265C181.196 11.0548 181.305 11.3467 181.56 11.5291C181.779 11.748 182.035 11.8575 182.327 11.8575L185.282 11.8575C187.252 11.8575 188.456 10.7629 188.456 8.75629Z" fill="rgb(0,0,0)" fill-rule="nonzero" />
	<path id="profsupport" d="M209.424 26.2689C202.93 26.2689 198.296 23.2042 198.077 16.3451C198.041 15.6519 198.041 14.6303 198.041 13.2074C198.041 11.7845 198.041 10.7265 198.077 10.0332C198.296 3.24712 202.966 0 209.424 0C215.882 0 220.515 3.24712 220.734 10.0332C220.771 11.4561 220.807 12.5142 220.807 13.2074C220.807 17.0383 220.807 21.0151 217.597 23.7514C215.59 25.4297 212.89 26.2689 209.424 26.2689ZM209.424 20.7962C212.306 20.7962 213.583 18.826 213.656 16.1262C213.693 14.7033 213.729 13.7182 213.729 13.0979C213.729 12.4777 213.693 11.4926 213.656 10.1427C213.583 7.40636 212.343 5.47268 209.424 5.47268C206.469 5.47268 205.228 7.36987 205.155 10.1427C205.119 10.8359 205.119 11.821 205.119 13.0979C205.119 14.4114 205.119 15.433 205.155 16.1262C205.228 18.8625 206.542 20.7962 209.424 20.7962Z" fill="rgb(0,0,255)" fill-rule="nonzero" />
	<path id="profsupport" d="M209.424 26.2689C202.93 26.2689 198.296 23.2042 198.077 16.3451C198.041 15.6519 198.041 14.6303 198.041 13.2074C198.041 11.7845 198.041 10.7265 198.077 10.0332C198.296 3.24712 202.966 0 209.424 0C215.882 0 220.515 3.24712 220.734 10.0332C220.771 11.4561 220.807 12.5142 220.807 13.2074C220.807 17.0383 220.807 21.0151 217.597 23.7514C215.59 25.4297 212.89 26.2689 209.424 26.2689ZM209.424 20.7962C212.306 20.7962 213.583 18.826 213.656 16.1262C213.693 14.7033 213.729 13.7182 213.729 13.0979C213.729 12.4777 213.693 11.4926 213.656 10.1427C213.583 7.40636 212.343 5.47268 209.424 5.47268C206.469 5.47268 205.228 7.36987 205.155 10.1427C205.119 10.8359 205.119 11.821 205.119 13.0979C205.119 14.4114 205.119 15.433 205.155 16.1262C205.228 18.8625 206.542 20.7962 209.424 20.7962Z" fill="rgb(0,0,0)" fill-rule="nonzero" />
	<path id="profsupport" d="M245.903 25.831L240.759 25.831C240.065 25.831 239.591 25.5027 239.299 24.8824L235.578 17.5855C235.359 17.1842 235.03 17.0018 234.593 17.0018L229.813 17.0018C230.433 17.0018 230.908 17.2207 231.273 17.622C231.601 18.0598 231.783 18.4977 231.783 18.9355L231.783 24.9554C231.783 25.2108 231.71 25.4297 231.528 25.5757C231.346 25.7581 231.127 25.831 230.871 25.831L225.873 25.831C225.471 25.831 224.961 25.3932 224.961 24.9554L224.961 3.57548C224.961 1.78774 226.347 0.437815 228.135 0.437815L235.87 0.437815C241.488 0.437815 246.085 2.73634 246.085 8.75629C246.085 11.7115 244.735 14.083 242.181 15.5424C241.999 15.6519 241.89 15.7978 241.89 15.9802C241.853 16.1626 241.89 16.2721 241.963 16.3816L246.56 24.7C246.633 24.846 246.669 24.9919 246.669 25.1014C246.669 25.2838 246.596 25.4662 246.45 25.6121C246.268 25.7581 246.085 25.831 245.903 25.831ZM239.044 8.7198C239.044 7.73472 238.752 6.96854 238.168 6.42128C237.548 5.91049 236.782 5.6551 235.833 5.6551L229.558 5.6551C230.616 5.6551 231.564 6.49425 231.564 7.58878L231.564 10.544C231.564 10.8359 231.674 11.0913 231.893 11.3102C232.075 11.5291 232.331 11.6386 232.659 11.6386L235.833 11.6386C237.73 11.6386 239.044 10.69 239.044 8.7198Z" fill="rgb(0,0,255)" fill-rule="nonzero" />
	<path id="profsupport" d="M245.903 25.831L240.759 25.831C240.065 25.831 239.591 25.5027 239.299 24.8824L235.578 17.5855C235.359 17.1842 235.03 17.0018 234.593 17.0018L229.813 17.0018C230.433 17.0018 230.908 17.2207 231.273 17.622C231.601 18.0598 231.783 18.4977 231.783 18.9355L231.783 24.9554C231.783 25.2108 231.71 25.4297 231.528 25.5757C231.346 25.7581 231.127 25.831 230.871 25.831L225.873 25.831C225.471 25.831 224.961 25.3932 224.961 24.9554L224.961 3.57548C224.961 1.78774 226.347 0.437815 228.135 0.437815L235.87 0.437815C241.488 0.437815 246.085 2.73634 246.085 8.75629C246.085 11.7115 244.735 14.083 242.181 15.5424C241.999 15.6519 241.89 15.7978 241.89 15.9802C241.853 16.1626 241.89 16.2721 241.963 16.3816L246.56 24.7C246.633 24.846 246.669 24.9919 246.669 25.1014C246.669 25.2838 246.596 25.4662 246.45 25.6121C246.268 25.7581 246.085 25.831 245.903 25.831ZM239.044 8.7198C239.044 7.73472 238.752 6.96854 238.168 6.42128C237.548 5.91049 236.782 5.6551 235.833 5.6551L229.558 5.6551C230.616 5.6551 231.564 6.49425 231.564 7.58878L231.564 10.544C231.564 10.8359 231.674 11.0913 231.893 11.3102C232.075 11.5291 232.331 11.6386 232.659 11.6386L235.833 11.6386C237.73 11.6386 239.044 10.69 239.044 8.7198Z" fill="rgb(0,0,0)" fill-rule="nonzero" />
	<path id="profsupport" d="M251.539 0.364845L269.051 0.364845C269.599 0.364845 270 0.72969 270 1.27696L270 5.36323C270 5.91049 269.599 6.27534 269.051 6.27534L260.587 6.27534C261.609 6.27534 262.667 7.11448 262.667 8.17253L262.667 24.8824C262.667 25.1378 262.557 25.3567 262.375 25.5027C262.192 25.6851 261.973 25.7581 261.718 25.7581L256.647 25.7581C256.391 25.7581 256.172 25.6851 255.99 25.5027C255.808 25.3567 255.698 25.1378 255.698 24.8824L255.698 7.36987C255.698 6.74964 255.224 6.27534 254.604 6.27534L249.313 6.27534C248.802 6.27534 248.365 5.87401 248.365 5.36323L248.365 3.50251C248.365 1.78774 249.824 0.364845 251.539 0.364845Z" fill="rgb(0,0,255)" fill-rule="nonzero" />
	<path id="profsupport" d="M251.539 0.364845L269.051 0.364845C269.599 0.364845 270 0.72969 270 1.27696L270 5.36323C270 5.91049 269.599 6.27534 269.051 6.27534L260.587 6.27534C261.609 6.27534 262.667 7.11448 262.667 8.17253L262.667 24.8824C262.667 25.1378 262.557 25.3567 262.375 25.5027C262.192 25.6851 261.973 25.7581 261.718 25.7581L256.647 25.7581C256.391 25.7581 256.172 25.6851 255.99 25.5027C255.808 25.3567 255.698 25.1378 255.698 24.8824L255.698 7.36987C255.698 6.74964 255.224 6.27534 254.604 6.27534L249.313 6.27534C248.802 6.27534 248.365 5.87401 248.365 5.36323L248.365 3.50251C248.365 1.78774 249.824 0.364845 251.539 0.364845Z" fill="rgb(0,0,0)" fill-rule="nonzero" />
</svg>
