<svg viewBox="0 0 152.868 14.8728" xmlns="http://www.w3.org/2000/svg" xmlns:xlink="http://www.w3.org/1999/xlink" width="152.867676" height="14.872803" fill="none" customFrame="#000000">
	<path id="profsupport" d="M12.0428 4.97826C12.0428 8.51055 9.37813 9.64667 6.3416 9.64667L4.60644 9.64667C4.25528 9.64667 3.98674 9.91521 3.98674 10.2664L3.98674 14.0879C3.98674 14.3564 3.75952 14.6043 3.47032 14.6043L0.516417 14.6043C0.268537 14.6043 0 14.3357 0 14.0879L0 2.0037C0 1.19809 0.454447 0.599043 1.17743 0.30985C1.384 0.247881 1.59056 0.206567 1.79713 0.206567L6.3416 0.206567C9.5847 0.206567 12.0428 1.54925 12.0428 4.97826ZM8.03545 4.9576C8.03545 3.78017 7.41575 3.16047 6.23832 3.16047L2.74734 3.16047C2.85062 3.16047 2.97456 3.18113 3.11916 3.22244C3.26376 3.28441 3.3877 3.34638 3.51164 3.44967C3.75952 3.69755 3.92477 3.92477 3.92477 4.29659L3.92477 6.07306C3.92477 6.25897 3.98674 6.42423 4.13134 6.52751C4.25528 6.65145 4.39987 6.71342 4.56513 6.71342L6.23832 6.71342C7.35378 6.71342 8.03545 6.09372 8.03545 4.9576Z" fill="rgb(0,36.7788,23.2683)" fill-rule="evenodd" />
	<path id="profsupport" d="M25.7942 14.6249L22.8816 14.6249C22.4892 14.6249 22.2206 14.439 22.0554 14.0879L19.9484 9.95652C19.8244 9.7293 19.6385 9.62601 19.3906 9.62601L16.6846 9.62601C17.0358 9.62601 17.3043 9.74995 17.5109 9.97718C17.6968 10.2251 17.8001 10.4729 17.8001 10.7208L17.8001 14.1292C17.8001 14.2738 17.7588 14.3977 17.6555 14.4803C17.5522 14.5836 17.4283 14.6249 17.2837 14.6249L14.4537 14.6249C14.2265 14.6249 13.9373 14.377 13.9373 14.1292L13.9373 2.02435C13.9373 1.01218 14.7222 0.247881 15.7344 0.247881L20.1136 0.247881C23.2948 0.247881 25.8975 1.54925 25.8975 4.9576C25.8975 6.63079 25.1332 7.97348 23.6872 8.79975C23.584 8.86172 23.522 8.94434 23.522 9.04763C23.5013 9.15091 23.522 9.21288 23.5633 9.27485L26.166 13.9846C26.2074 14.0672 26.228 14.1498 26.228 14.2118C26.228 14.3151 26.1867 14.4184 26.1041 14.501C26.0008 14.5836 25.8975 14.6249 25.7942 14.6249ZM21.9108 4.93695C21.9108 4.37922 21.7455 3.94543 21.415 3.63558C21.0638 3.34638 20.6301 3.20179 20.093 3.20179L16.54 3.20179C17.1391 3.20179 17.6761 3.67689 17.6761 4.29659L17.6761 5.96978C17.6761 6.13503 17.7381 6.27963 17.8621 6.40357C17.9653 6.52751 18.1099 6.58948 18.2958 6.58948L20.093 6.58948C21.1671 6.58948 21.9108 6.05241 21.9108 4.93695Z" fill="rgb(0,36.7788,23.2683)" fill-rule="evenodd" />
	<path id="profsupport" d="M25.7942 14.6249L22.8816 14.6249C22.4892 14.6249 22.2206 14.439 22.0554 14.0879L19.9484 9.95652C19.8244 9.7293 19.6385 9.62601 19.3906 9.62601L16.6846 9.62601C17.0358 9.62601 17.3043 9.74995 17.5109 9.97718C17.6968 10.2251 17.8001 10.4729 17.8001 10.7208L17.8001 14.1292C17.8001 14.2738 17.7588 14.3977 17.6555 14.4803C17.5522 14.5836 17.4283 14.6249 17.2837 14.6249L14.4537 14.6249C14.2265 14.6249 13.9373 14.377 13.9373 14.1292L13.9373 2.02435C13.9373 1.01218 14.7222 0.247881 15.7344 0.247881L20.1136 0.247881C23.2948 0.247881 25.8975 1.54925 25.8975 4.9576C25.8975 6.63079 25.1332 7.97348 23.6872 8.79975C23.584 8.86172 23.522 8.94434 23.522 9.04763C23.5013 9.15091 23.522 9.21288 23.5633 9.27485L26.166 13.9846C26.2074 14.0672 26.228 14.1498 26.228 14.2118C26.228 14.3151 26.1867 14.4184 26.1041 14.501C26.0008 14.5836 25.8975 14.6249 25.7942 14.6249ZM21.9108 4.93695C21.9108 4.37922 21.7455 3.94543 21.415 3.63558C21.0638 3.34638 20.6301 3.20179 20.093 3.20179L16.54 3.20179C17.1391 3.20179 17.6761 3.67689 17.6761 4.29659L17.6761 5.96978C17.6761 6.13503 17.7381 6.27963 17.8621 6.40357C17.9653 6.52751 18.1099 6.58948 18.2958 6.58948L20.093 6.58948C21.1671 6.58948 21.9108 6.05241 21.9108 4.93695Z" fill="rgb(0,36.7788,23.2683)" fill-rule="evenodd" />
	<path id="profsupport" d="M34.2094 14.8728C30.5325 14.8728 27.9091 13.1376 27.7852 9.25419C27.7645 8.86172 27.7645 8.28333 27.7645 7.47772C27.7645 6.67211 27.7645 6.07306 27.7852 5.68059C27.9091 1.83844 30.5532 0 34.2094 0C37.8656 0 40.489 1.83844 40.613 5.68059C40.6336 6.4862 40.6543 7.08524 40.6543 7.47772C40.6543 9.64667 40.6543 11.8982 38.8365 13.4475C37.7004 14.3977 36.1718 14.8728 34.2094 14.8728ZM34.2094 11.7743C35.8413 11.7743 36.5643 10.6588 36.6056 9.13025C36.6262 8.32464 36.6469 7.76691 36.6469 7.41575C36.6469 7.06458 36.6262 6.50685 36.6056 5.74256C36.5643 4.19331 35.8619 3.0985 34.2094 3.0985C32.5362 3.0985 31.8339 4.17265 31.7926 5.74256C31.7719 6.13503 31.7719 6.69276 31.7719 7.41575C31.7719 8.15939 31.7719 8.73778 31.7926 9.13025C31.8339 10.6795 32.5775 11.7743 34.2094 11.7743Z" fill="rgb(0,36.7788,23.2683)" fill-rule="evenodd" />
	<path id="profsupport" d="M34.2094 14.8728C30.5325 14.8728 27.9091 13.1376 27.7852 9.25419C27.7645 8.86172 27.7645 8.28333 27.7645 7.47772C27.7645 6.67211 27.7645 6.07306 27.7852 5.68059C27.9091 1.83844 30.5532 0 34.2094 0C37.8656 0 40.489 1.83844 40.613 5.68059C40.6336 6.4862 40.6543 7.08524 40.6543 7.47772C40.6543 9.64667 40.6543 11.8982 38.8365 13.4475C37.7004 14.3977 36.1718 14.8728 34.2094 14.8728ZM34.2094 11.7743C35.8413 11.7743 36.5643 10.6588 36.6056 9.13025C36.6262 8.32464 36.6469 7.76691 36.6469 7.41575C36.6469 7.06458 36.6262 6.50685 36.6056 5.74256C36.5643 4.19331 35.8619 3.0985 34.2094 3.0985C32.5362 3.0985 31.8339 4.17265 31.7926 5.74256C31.7719 6.13503 31.7719 6.69276 31.7719 7.41575C31.7719 8.15939 31.7719 8.73778 31.7926 9.13025C31.8339 10.6795 32.5775 11.7743 34.2094 11.7743Z" fill="rgb(0,36.7788,23.2683)" fill-rule="evenodd" />
	<path id="profsupport" d="M43.0266 14.0879L43.0266 2.0037C43.0266 1.52859 43.2538 1.03283 43.5843 0.702327C43.7496 0.557731 43.9355 0.433791 44.1627 0.330508C44.3899 0.247881 44.5965 0.206567 44.8237 0.206567L53.107 0.206567C53.3756 0.206567 53.6441 0.475104 53.6441 0.743641L53.6441 2.93325C53.6441 3.07784 53.5821 3.20179 53.4789 3.28441C53.3756 3.3877 53.2516 3.42901 53.107 3.42901L45.6706 3.42901C46.2903 3.42901 46.8067 3.92477 46.8067 4.54447L46.8067 6.30029L51.7643 6.30029C52.1155 6.30029 52.3014 6.4862 52.3014 6.83736L52.3014 9.00631C52.3014 9.17157 52.2601 9.29551 52.1568 9.37813C52.0535 9.48142 51.9296 9.52273 51.7643 9.52273L45.6706 9.52273C46.2697 9.52273 46.8067 10.0185 46.8067 10.6175L46.8067 14.0879C46.8067 14.2325 46.7654 14.3564 46.6621 14.4597C46.5795 14.563 46.4556 14.6043 46.2903 14.6043L43.543 14.6043C43.2331 14.6043 43.0266 14.3977 43.0266 14.0879Z" fill="rgb(0,36.7788,23.2683)" fill-rule="evenodd" />
	<path id="profsupport" d="M43.0266 14.0879L43.0266 2.0037C43.0266 1.52859 43.2538 1.03283 43.5843 0.702327C43.7496 0.557731 43.9355 0.433791 44.1627 0.330508C44.3899 0.247881 44.5965 0.206567 44.8237 0.206567L53.107 0.206567C53.3756 0.206567 53.6441 0.475104 53.6441 0.743641L53.6441 2.93325C53.6441 3.07784 53.5821 3.20179 53.4789 3.28441C53.3756 3.3877 53.2516 3.42901 53.107 3.42901L45.6706 3.42901C46.2903 3.42901 46.8067 3.92477 46.8067 4.54447L46.8067 6.30029L51.7643 6.30029C52.1155 6.30029 52.3014 6.4862 52.3014 6.83736L52.3014 9.00631C52.3014 9.17157 52.2601 9.29551 52.1568 9.37813C52.0535 9.48142 51.9296 9.52273 51.7643 9.52273L45.6706 9.52273C46.2697 9.52273 46.8067 10.0185 46.8067 10.6175L46.8067 14.0879C46.8067 14.2325 46.7654 14.3564 46.6621 14.4597C46.5795 14.563 46.4556 14.6043 46.2903 14.6043L43.543 14.6043C43.2331 14.6043 43.0266 14.3977 43.0266 14.0879Z" fill="rgb(0,36.7788,23.2683)" fill-rule="evenodd" />
	<path id="profsupport" d="M67.4875 10.287C67.4875 13.6541 64.0171 14.8315 61.2078 14.8315C58.5431 14.8315 55.0935 13.8193 54.9282 10.6795C54.9282 10.5556 54.9695 10.4523 55.0728 10.3697C55.1554 10.287 55.2587 10.2457 55.3827 10.2457L58.13 10.2457C58.2126 10.2457 58.2952 10.2457 58.3572 10.2664C58.4192 10.287 58.4605 10.3077 58.5225 10.3283C58.6258 10.3903 58.729 10.4729 58.8736 10.6175C59.3281 11.4851 60.2783 11.7537 61.2078 11.7537C61.6829 11.7537 62.2407 11.733 62.6745 11.5264C62.9017 11.4438 63.0876 11.3199 63.2528 11.134C63.4181 10.9687 63.5007 10.7415 63.5007 10.4729C63.5007 9.70864 62.8397 9.48142 62.22 9.27485C61.9928 9.19222 61.7036 9.1096 61.3937 9.02697C58.729 8.53121 55.3 7.84954 55.3 4.42053C55.3 1.2394 58.3572 0.0413141 61.0632 0.0413141C62.0341 0.0413141 62.9843 0.18591 63.9139 0.516416C65.3598 1.11546 66.8884 2.39617 66.9917 4.06937C66.9917 4.17265 66.9504 4.27593 66.8678 4.37922C66.7645 4.4825 66.6612 4.52381 66.5579 4.52381L63.666 4.52381C63.3768 4.52381 63.1496 4.39987 62.9843 4.15199C62.9017 3.8628 62.6951 3.61492 62.344 3.40835C61.9721 3.22244 61.5383 3.11916 61.0632 3.11916C60.4642 3.11916 59.7825 3.20179 59.4107 3.7182C59.3074 3.88346 59.2455 4.09002 59.2455 4.3379C59.2455 4.73038 59.452 5.04023 59.8652 5.26745C60.2783 5.49468 61.0426 5.7219 62.1787 5.94912C64.8228 6.46554 67.4875 7.12655 67.4875 10.287Z" fill="rgb(0,36.7788,23.2683)" fill-rule="nonzero" />
	<path id="profsupport" d="M67.4875 10.287C67.4875 13.6541 64.0171 14.8315 61.2078 14.8315C58.5431 14.8315 55.0935 13.8193 54.9282 10.6795C54.9282 10.5556 54.9695 10.4523 55.0728 10.3697C55.1554 10.287 55.2587 10.2457 55.3827 10.2457L58.13 10.2457C58.2126 10.2457 58.2952 10.2457 58.3572 10.2664C58.4192 10.287 58.4605 10.3077 58.5225 10.3283C58.6258 10.3903 58.729 10.4729 58.8736 10.6175C59.3281 11.4851 60.2783 11.7537 61.2078 11.7537C61.6829 11.7537 62.2407 11.733 62.6745 11.5264C62.9017 11.4438 63.0876 11.3199 63.2528 11.134C63.4181 10.9687 63.5007 10.7415 63.5007 10.4729C63.5007 9.70864 62.8397 9.48142 62.22 9.27485C61.9928 9.19222 61.7036 9.1096 61.3937 9.02697C58.729 8.53121 55.3 7.84954 55.3 4.42053C55.3 1.2394 58.3572 0.0413141 61.0632 0.0413141C62.0341 0.0413141 62.9843 0.18591 63.9139 0.516416C65.3598 1.11546 66.8884 2.39617 66.9917 4.06937C66.9917 4.17265 66.9504 4.27593 66.8678 4.37922C66.7645 4.4825 66.6612 4.52381 66.5579 4.52381L63.666 4.52381C63.3768 4.52381 63.1496 4.39987 62.9843 4.15199C62.9017 3.8628 62.6951 3.61492 62.344 3.40835C61.9721 3.22244 61.5383 3.11916 61.0632 3.11916C60.4642 3.11916 59.7825 3.20179 59.4107 3.7182C59.3074 3.88346 59.2455 4.09002 59.2455 4.3379C59.2455 4.73038 59.452 5.04023 59.8652 5.26745C60.2783 5.49468 61.0426 5.7219 62.1787 5.94912C64.8228 6.46554 67.4875 7.12655 67.4875 10.287Z" fill="rgb(255,255,255)" fill-rule="nonzero" />
	<path id="profsupport" d="M69.4295 9.19222L69.4295 2.04501C69.4295 1.75582 69.4915 1.50794 69.6154 1.28071C69.7187 1.05349 69.8633 0.86758 70.0492 0.722984C70.2145 0.578387 70.4004 0.454447 70.6276 0.37182C70.8342 0.30985 71.0407 0.268537 71.2266 0.268537L72.7759 0.268537C73.0857 0.268537 73.313 0.475104 73.313 0.784954L73.313 9.15091C73.313 10.7208 74.0153 11.6917 75.6472 11.6917C77.2997 11.6917 77.9814 10.7415 77.9814 9.15091L77.9814 2.02435C77.9814 1.73516 78.0434 1.48728 78.1673 1.26006C78.4358 0.661014 79.1175 0.268537 79.7785 0.268537L81.3278 0.268537C81.6376 0.268537 81.8648 0.475104 81.8648 0.784954L81.8648 9.19222C81.8648 13.179 79.2828 14.8522 75.6678 14.8522C71.8464 14.8522 69.4295 13.0137 69.4295 9.19222Z" fill="rgb(0,36.7788,23.2683)" fill-rule="nonzero" />
	<path id="profsupport" d="M69.4295 9.19222L69.4295 2.04501C69.4295 1.75582 69.4915 1.50794 69.6154 1.28071C69.7187 1.05349 69.8633 0.86758 70.0492 0.722984C70.2145 0.578387 70.4004 0.454447 70.6276 0.37182C70.8342 0.30985 71.0407 0.268537 71.2266 0.268537L72.7759 0.268537C73.0857 0.268537 73.313 0.475104 73.313 0.784954L73.313 9.15091C73.313 10.7208 74.0153 11.6917 75.6472 11.6917C77.2997 11.6917 77.9814 10.7415 77.9814 9.15091L77.9814 2.02435C77.9814 1.73516 78.0434 1.48728 78.1673 1.26006C78.4358 0.661014 79.1175 0.268537 79.7785 0.268537L81.3278 0.268537C81.6376 0.268537 81.8648 0.475104 81.8648 0.784954L81.8648 9.19222C81.8648 13.179 79.2828 14.8522 75.6678 14.8522C71.8464 14.8522 69.4295 13.0137 69.4295 9.19222Z" fill="rgb(255,255,255)" fill-rule="nonzero" />
	<path id="profsupport" d="M96.6868 4.97826C96.6868 8.51055 94.0221 9.64667 90.9856 9.64667L89.2504 9.64667C88.8992 9.64667 88.6307 9.91521 88.6307 10.2664L88.6307 14.0879C88.6307 14.3564 88.4035 14.6043 88.1143 14.6043L85.1604 14.6043C84.9125 14.6043 84.644 14.3357 84.644 14.0879L84.644 2.0037C84.644 1.19809 85.0984 0.599043 85.8214 0.30985C86.028 0.247881 86.2345 0.206567 86.4411 0.206567L90.9856 0.206567C94.2287 0.206567 96.6868 1.54925 96.6868 4.97826ZM92.6794 4.9576C92.6794 3.78017 92.0597 3.16047 90.8823 3.16047L87.3913 3.16047C87.4946 3.16047 87.6185 3.18113 87.7631 3.22244C87.9077 3.28441 88.0317 3.34638 88.1556 3.44967C88.4035 3.69755 88.5687 3.92477 88.5687 4.29659L88.5687 6.07306C88.5687 6.25897 88.6307 6.42423 88.7753 6.52751C88.8992 6.65145 89.0438 6.71342 89.2091 6.71342L90.8823 6.71342C91.9977 6.71342 92.6794 6.09372 92.6794 4.9576Z" fill="rgb(0,36.7788,23.2683)" fill-rule="nonzero" />
	<path id="profsupport" d="M96.6868 4.97826C96.6868 8.51055 94.0221 9.64667 90.9856 9.64667L89.2504 9.64667C88.8992 9.64667 88.6307 9.91521 88.6307 10.2664L88.6307 14.0879C88.6307 14.3564 88.4035 14.6043 88.1143 14.6043L85.1604 14.6043C84.9125 14.6043 84.644 14.3357 84.644 14.0879L84.644 2.0037C84.644 1.19809 85.0984 0.599043 85.8214 0.30985C86.028 0.247881 86.2345 0.206567 86.4411 0.206567L90.9856 0.206567C94.2287 0.206567 96.6868 1.54925 96.6868 4.97826ZM92.6794 4.9576C92.6794 3.78017 92.0597 3.16047 90.8823 3.16047L87.3913 3.16047C87.4946 3.16047 87.6185 3.18113 87.7631 3.22244C87.9077 3.28441 88.0317 3.34638 88.1556 3.44967C88.4035 3.69755 88.5687 3.92477 88.5687 4.29659L88.5687 6.07306C88.5687 6.25897 88.6307 6.42423 88.7753 6.52751C88.8992 6.65145 89.0438 6.71342 89.2091 6.71342L90.8823 6.71342C91.9977 6.71342 92.6794 6.09372 92.6794 4.9576Z" fill="rgb(255,255,255)" fill-rule="nonzero" />
	<path id="profsupport" d="M110.707 4.97826C110.707 8.51055 108.042 9.64667 105.005 9.64667L103.27 9.64667C102.919 9.64667 102.651 9.91521 102.651 10.2664L102.651 14.0879C102.651 14.3564 102.423 14.6043 102.134 14.6043L99.1803 14.6043C98.9324 14.6043 98.6639 14.3357 98.6639 14.0879L98.6639 2.0037C98.6639 1.19809 99.1183 0.599043 99.8413 0.30985C100.048 0.247881 100.254 0.206567 100.461 0.206567L105.005 0.206567C108.249 0.206567 110.707 1.54925 110.707 4.97826ZM106.699 4.9576C106.699 3.78017 106.08 3.16047 104.902 3.16047L101.411 3.16047C101.515 3.16047 101.638 3.18113 101.783 3.22244C101.928 3.28441 102.052 3.34638 102.176 3.44967C102.423 3.69755 102.589 3.92477 102.589 4.29659L102.589 6.07306C102.589 6.25897 102.651 6.42423 102.795 6.52751C102.919 6.65145 103.064 6.71342 103.229 6.71342L104.902 6.71342C106.018 6.71342 106.699 6.09372 106.699 4.9576Z" fill="rgb(0,36.7788,23.2683)" fill-rule="nonzero" />
	<path id="profsupport" d="M110.707 4.97826C110.707 8.51055 108.042 9.64667 105.005 9.64667L103.27 9.64667C102.919 9.64667 102.651 9.91521 102.651 10.2664L102.651 14.0879C102.651 14.3564 102.423 14.6043 102.134 14.6043L99.1803 14.6043C98.9324 14.6043 98.6639 14.3357 98.6639 14.0879L98.6639 2.0037C98.6639 1.19809 99.1183 0.599043 99.8413 0.30985C100.048 0.247881 100.254 0.206567 100.461 0.206567L105.005 0.206567C108.249 0.206567 110.707 1.54925 110.707 4.97826ZM106.699 4.9576C106.699 3.78017 106.08 3.16047 104.902 3.16047L101.411 3.16047C101.515 3.16047 101.638 3.18113 101.783 3.22244C101.928 3.28441 102.052 3.34638 102.176 3.44967C102.423 3.69755 102.589 3.92477 102.589 4.29659L102.589 6.07306C102.589 6.25897 102.651 6.42423 102.795 6.52751C102.919 6.65145 103.064 6.71342 103.229 6.71342L104.902 6.71342C106.018 6.71342 106.699 6.09372 106.699 4.9576Z" fill="rgb(255,255,255)" fill-rule="nonzero" />
	<path id="profsupport" d="M118.571 14.8728C114.894 14.8728 112.271 13.1376 112.147 9.25419C112.126 8.86172 112.126 8.28333 112.126 7.47772C112.126 6.67211 112.126 6.07306 112.147 5.68059C112.271 1.83844 114.915 0 118.571 0C122.227 0 124.851 1.83844 124.975 5.68059C124.995 6.4862 125.016 7.08524 125.016 7.47772C125.016 9.64667 125.016 11.8982 123.198 13.4475C122.062 14.3977 120.533 14.8728 118.571 14.8728ZM118.571 11.7743C120.203 11.7743 120.926 10.6588 120.967 9.13025C120.988 8.32464 121.008 7.76691 121.008 7.41575C121.008 7.06458 120.988 6.50685 120.967 5.74256C120.926 4.19331 120.223 3.0985 118.571 3.0985C116.898 3.0985 116.195 4.17265 116.154 5.74256C116.133 6.13503 116.133 6.69276 116.133 7.41575C116.133 8.15939 116.133 8.73778 116.154 9.13025C116.195 10.6795 116.939 11.7743 118.571 11.7743Z" fill="rgb(0,36.7788,23.2683)" fill-rule="nonzero" />
	<path id="profsupport" d="M118.571 14.8728C114.894 14.8728 112.271 13.1376 112.147 9.25419C112.126 8.86172 112.126 8.28333 112.126 7.47772C112.126 6.67211 112.126 6.07306 112.147 5.68059C112.271 1.83844 114.915 0 118.571 0C122.227 0 124.851 1.83844 124.975 5.68059C124.995 6.4862 125.016 7.08524 125.016 7.47772C125.016 9.64667 125.016 11.8982 123.198 13.4475C122.062 14.3977 120.533 14.8728 118.571 14.8728ZM118.571 11.7743C120.203 11.7743 120.926 10.6588 120.967 9.13025C120.988 8.32464 121.008 7.76691 121.008 7.41575C121.008 7.06458 120.988 6.50685 120.967 5.74256C120.926 4.19331 120.223 3.0985 118.571 3.0985C116.898 3.0985 116.195 4.17265 116.154 5.74256C116.133 6.13503 116.133 6.69276 116.133 7.41575C116.133 8.15939 116.133 8.73778 116.154 9.13025C116.195 10.6795 116.939 11.7743 118.571 11.7743Z" fill="rgb(255,255,255)" fill-rule="nonzero" />
	<path id="profsupport" d="M139.224 14.6249L136.312 14.6249C135.919 14.6249 135.651 14.439 135.486 14.0879L133.379 9.95652C133.255 9.7293 133.069 9.62601 132.821 9.62601L130.115 9.62601C130.466 9.62601 130.734 9.74995 130.941 9.97718C131.127 10.2251 131.23 10.4729 131.23 10.7208L131.23 14.1292C131.23 14.2738 131.189 14.3977 131.086 14.4803C130.982 14.5836 130.858 14.6249 130.714 14.6249L127.884 14.6249C127.657 14.6249 127.367 14.377 127.367 14.1292L127.367 2.02435C127.367 1.01218 128.152 0.247881 129.165 0.247881L133.544 0.247881C136.725 0.247881 139.328 1.54925 139.328 4.9576C139.328 6.63079 138.563 7.97348 137.117 8.79975C137.014 8.86172 136.952 8.94434 136.952 9.04763C136.932 9.15091 136.952 9.21288 136.993 9.27485L139.596 13.9846C139.638 14.0672 139.658 14.1498 139.658 14.2118C139.658 14.3151 139.617 14.4184 139.534 14.501C139.431 14.5836 139.328 14.6249 139.224 14.6249ZM135.341 4.93695C135.341 4.37922 135.176 3.94543 134.845 3.63558C134.494 3.34638 134.06 3.20179 133.523 3.20179L129.97 3.20179C130.569 3.20179 131.106 3.67689 131.106 4.29659L131.106 5.96978C131.106 6.13503 131.168 6.27963 131.292 6.40357C131.396 6.52751 131.54 6.58948 131.726 6.58948L133.523 6.58948C134.597 6.58948 135.341 6.05241 135.341 4.93695Z" fill="rgb(0,36.7788,23.2683)" fill-rule="nonzero" />
	<path id="profsupport" d="M139.224 14.6249L136.312 14.6249C135.919 14.6249 135.651 14.439 135.486 14.0879L133.379 9.95652C133.255 9.7293 133.069 9.62601 132.821 9.62601L130.115 9.62601C130.466 9.62601 130.734 9.74995 130.941 9.97718C131.127 10.2251 131.23 10.4729 131.23 10.7208L131.23 14.1292C131.23 14.2738 131.189 14.3977 131.086 14.4803C130.982 14.5836 130.858 14.6249 130.714 14.6249L127.884 14.6249C127.657 14.6249 127.367 14.377 127.367 14.1292L127.367 2.02435C127.367 1.01218 128.152 0.247881 129.165 0.247881L133.544 0.247881C136.725 0.247881 139.328 1.54925 139.328 4.9576C139.328 6.63079 138.563 7.97348 137.117 8.79975C137.014 8.86172 136.952 8.94434 136.952 9.04763C136.932 9.15091 136.952 9.21288 136.993 9.27485L139.596 13.9846C139.638 14.0672 139.658 14.1498 139.658 14.2118C139.658 14.3151 139.617 14.4184 139.534 14.501C139.431 14.5836 139.328 14.6249 139.224 14.6249ZM135.341 4.93695C135.341 4.37922 135.176 3.94543 134.845 3.63558C134.494 3.34638 134.06 3.20179 133.523 3.20179L129.97 3.20179C130.569 3.20179 131.106 3.67689 131.106 4.29659L131.106 5.96978C131.106 6.13503 131.168 6.27963 131.292 6.40357C131.396 6.52751 131.54 6.58948 131.726 6.58948L133.523 6.58948C134.597 6.58948 135.341 6.05241 135.341 4.93695Z" fill="rgb(255,255,255)" fill-rule="nonzero" />
	<path id="profsupport" d="M142.415 0.206567L152.331 0.206567C152.64 0.206567 152.868 0.413133 152.868 0.722984L152.868 3.03653C152.868 3.34638 152.64 3.55295 152.331 3.55295L147.538 3.55295C148.117 3.55295 148.716 4.02805 148.716 4.6271L148.716 14.0879C148.716 14.2325 148.654 14.3564 148.55 14.439C148.447 14.5423 148.323 14.5836 148.179 14.5836L145.307 14.5836C145.163 14.5836 145.039 14.5423 144.935 14.439C144.832 14.3564 144.77 14.2325 144.77 14.0879L144.77 4.17265C144.77 3.82149 144.502 3.55295 144.151 3.55295L141.155 3.55295C140.866 3.55295 140.618 3.32573 140.618 3.03653L140.618 1.98304C140.618 1.01218 141.445 0.206567 142.415 0.206567Z" fill="rgb(0,36.7788,23.2683)" fill-rule="nonzero" />
	<path id="profsupport" d="M142.415 0.206567L152.331 0.206567C152.64 0.206567 152.868 0.413133 152.868 0.722984L152.868 3.03653C152.868 3.34638 152.64 3.55295 152.331 3.55295L147.538 3.55295C148.117 3.55295 148.716 4.02805 148.716 4.6271L148.716 14.0879C148.716 14.2325 148.654 14.3564 148.55 14.439C148.447 14.5423 148.323 14.5836 148.179 14.5836L145.307 14.5836C145.163 14.5836 145.039 14.5423 144.935 14.439C144.832 14.3564 144.77 14.2325 144.77 14.0879L144.77 4.17265C144.77 3.82149 144.502 3.55295 144.151 3.55295L141.155 3.55295C140.866 3.55295 140.618 3.32573 140.618 3.03653L140.618 1.98304C140.618 1.01218 141.445 0.206567 142.415 0.206567Z" fill="rgb(255,255,255)" fill-rule="nonzero" />
</svg>
