<svg viewBox="0 0 20 20" xmlns="http://www.w3.org/2000/svg" xmlns:xlink="http://www.w3.org/1999/xlink" width="20.000000" height="20.000000" fill="none">
	<rect id="ic:round-pin-drop" width="20.000000" height="20.000000" x="0.000000" y="0.000000" fill="rgb(255,255,255)" fill-opacity="0" />
	<path id="Vector" d="M5.00002 16.666L15 16.666C15.4584 16.666 15.8334 17.041 15.8334 17.4993C15.8334 17.9577 15.4584 18.3327 15 18.3327L5.00002 18.3327C4.54169 18.3327 4.16669 17.9577 4.16669 17.4993C4.16669 17.041 4.54169 16.666 5.00002 16.666ZM10 5.83268C9.08335 5.83268 8.33335 6.58268 8.33335 7.49935C8.33335 8.41602 9.08335 9.16602 10 9.16602C10.9167 9.16602 11.6667 8.41602 11.6667 7.49935C11.6667 6.58268 10.9167 5.83268 10 5.83268ZM10 1.66602C12.725 1.66602 15.8334 3.71602 15.8334 7.62435C15.8334 10.1077 14.0584 12.7243 10.5084 15.4493C10.2084 15.6827 9.79169 15.6827 9.49169 15.4493C5.94169 12.716 4.16669 10.1077 4.16669 7.62435C4.16669 3.71602 7.27502 1.66602 10 1.66602Z" fill="rgb(0,0,0)" fill-rule="nonzero" />
</svg>
