<svg viewBox="0 0 17.5 11.5" xmlns="http://www.w3.org/2000/svg" xmlns:xlink="http://www.w3.org/1999/xlink" width="17.500000" height="11.500000" fill="none" customFrame="#000000">
	<g id="Group">
		<path id="Union" d="M0.75 0L16.75 0C17.17 0 17.5 0.33 17.5 0.75C17.5 1.17 17.17 1.5 16.75 1.5L0.75 1.5C0.33 1.5 0 1.17 0 0.75C0 0.33 0.33 0 0.75 0ZM16.75 5L0.75 5C0.33 5 0 5.33 0 5.75C0 6.17 0.33 6.5 0.75 6.5L16.75 6.5C17.17 6.5 17.5 6.17 17.5 5.75C17.5 5.33 17.17 5 16.75 5ZM16.75 10L0.75 10C0.33 10 0 10.33 0 10.75C0 11.17 0.33 11.5 0.75 11.5L16.75 11.5C17.17 11.5 17.5 11.17 17.5 10.75C17.5 10.33 17.17 10 16.75 10Z" fill="rgb(255,255,255)" fill-rule="evenodd" />
	</g>
</svg>
