<svg viewBox="0 0 20 20" xmlns="http://www.w3.org/2000/svg" xmlns:xlink="http://www.w3.org/1999/xlink" width="20.000000" height="20.000000" fill="none">
	<rect id="akar-icons:whatsapp-fill" width="20.000000" height="20.000000" x="0.000000" y="0.000000" fill="rgb(255,255,255)" fill-opacity="0" />
	<path id="image 17 (Traced)" d="M9.64901 1.00453C8.06192 1.05298 6.36948 1.59747 5.03825 2.4879C4.48239 2.85971 4.16109 3.12005 3.7027 3.57003C2.21914 5.02654 1.33433 6.80017 1.05547 8.87666C0.980966 9.4316 0.981617 10.587 1.0568 11.147C1.40542 13.7439 2.79194 15.9979 4.94259 17.464C6.10753 18.2581 7.53487 18.7897 8.95698 18.959C9.46164 19.0191 10.6198 19.0119 11.1235 18.9455C14.9544 18.4409 18.0242 15.6061 18.8098 11.8475C18.9466 11.1933 18.9883 10.7632 18.9883 10.0069C18.9883 9.2505 18.9466 8.82041 18.8098 8.16618C18.4553 6.47003 17.6511 4.96459 16.4338 3.71796C14.6446 1.88586 12.2429 0.925329 9.64901 1.00453ZM13.8337 6.5011C13.9031 6.53011 13.9993 6.60331 14.0475 6.66372C14.1298 6.76707 14.1337 6.79738 14.1133 7.17535C14.0807 7.78167 13.5354 11.4307 13.2442 12.9914C13.0886 13.8254 12.9366 14.2366 12.7207 14.4076C12.6307 14.479 12.5811 14.4889 12.3967 14.4725C12.2769 14.4618 12.0875 14.4108 11.9758 14.3591C11.6661 14.2159 8.86626 12.321 8.78816 12.2018C8.69219 12.0553 8.67073 11.8051 8.74228 11.6668C8.77438 11.6047 9.46504 10.9026 10.2771 10.1065C11.0891 9.31038 11.7535 8.62998 11.7535 8.59447C11.7535 8.50971 11.6792 8.43805 11.5914 8.43805C11.5527 8.43805 11.3281 8.573 11.0921 8.73799C10.013 9.49228 7.59261 11.0955 7.39758 11.1851C7.23328 11.2606 7.10115 11.2885 6.85007 11.3007C6.49586 11.318 6.24577 11.2617 5.22957 10.9361C4.68955 10.7631 4.54342 10.6874 4.48718 10.5516C4.40349 10.3496 4.54105 10.1686 4.92346 9.97731C5.12423 9.87691 8.85887 8.29417 11.7344 7.09086C13.2326 6.46387 13.5388 6.37786 13.8337 6.5011Z" fill="rgb(0,0,0)" fill-rule="evenodd" />
</svg>
