<svg viewBox="0 0 17.9883 18" xmlns="http://www.w3.org/2000/svg" xmlns:xlink="http://www.w3.org/1999/xlink" width="17.988281" height="18.000000" fill="none" customFrame="#000000">
	<path id="image 17 (Traced)" d="M8.64901 0.00453467C7.06192 0.0529764 5.36948 0.597468 4.03825 1.4879C3.48239 1.85971 3.16109 2.12005 2.7027 2.57003C1.21914 4.02654 0.334331 5.80017 0.0554656 7.87666C-0.0190337 8.4316 -0.0183832 9.58705 0.0568048 10.147C0.405425 12.7439 1.79194 14.9979 3.94259 16.464C5.10753 17.2581 6.53487 17.7897 7.95698 17.959C8.46164 18.0191 9.6198 18.0119 10.1235 17.9455C13.9544 17.4409 17.0242 14.6061 17.8098 10.8475C17.9466 10.1933 17.9883 9.76321 17.9883 9.00685C17.9883 8.2505 17.9466 7.82041 17.8098 7.16618C17.4553 5.47003 16.6511 3.96459 15.4338 2.71796C13.6446 0.88586 11.2429 -0.074671 8.64901 0.00453467ZM12.8337 5.5011C12.9031 5.53011 12.9993 5.60331 13.0475 5.66372C13.1298 5.76707 13.1337 5.79738 13.1133 6.17535C13.0807 6.78167 12.5354 10.4307 12.2442 11.9914C12.0886 12.8254 11.9366 13.2366 11.7207 13.4076C11.6307 13.479 11.5811 13.4889 11.3967 13.4725C11.2769 13.4618 11.0875 13.4108 10.9758 13.3591C10.6661 13.2159 7.86626 11.321 7.78816 11.2018C7.69219 11.0553 7.67073 10.8051 7.74228 10.6668C7.77438 10.6047 8.46504 9.90257 9.27707 9.10649C10.0891 8.31038 10.7535 7.62998 10.7535 7.59447C10.7535 7.50971 10.6792 7.43805 10.5914 7.43805C10.5527 7.43805 10.3281 7.573 10.0921 7.73799C9.01302 8.49228 6.59261 10.0955 6.39758 10.1851C6.23328 10.2606 6.10115 10.2885 5.85007 10.3007C5.49586 10.318 5.24577 10.2617 4.22957 9.93609C3.68955 9.76306 3.54342 9.68737 3.48718 9.55161C3.40349 9.34962 3.54105 9.16856 3.92346 8.97731C4.12423 8.87691 7.85887 7.29417 10.7344 6.09086C12.2326 5.46387 12.5388 5.37786 12.8337 5.5011Z" fill="rgb(255,255,255)" fill-rule="evenodd" />
</svg>
