<svg viewBox="0 0 20 20" xmlns="http://www.w3.org/2000/svg" xmlns:xlink="http://www.w3.org/1999/xlink" width="20.000000" height="20.000000" fill="none">
	<rect id="akar-icons:whatsapp-fill" width="20.000000" height="20.000000" x="0.000000" y="0.000000" fill="rgb(255,255,255)" fill-opacity="0" />
	<path id="image 18 (Traced)" d="M6.50649 1.01645C4.39396 1.17496 2.51736 2.4563 1.59732 4.36848C1.29768 4.99121 1.13081 5.54597 1.04552 6.20271C0.986184 6.65988 0.984269 11.0772 1.04323 11.5243C1.19381 12.666 1.62863 13.6787 2.3497 14.5672C2.56073 14.8273 3.00156 15.2595 3.03482 15.2389C3.05 15.2295 3.05486 15.2341 3.04563 15.249C3.00911 15.3081 3.70736 15.8083 4.15993 16.0472C4.46959 16.2107 4.69929 16.312 4.96909 16.4043L5.14441 16.4642L5.15859 17.4453C5.17354 18.4785 5.17632 18.5021 5.30753 18.7096C5.43732 18.9149 5.65758 19.0265 5.87009 18.9946C6.15133 18.9524 6.38504 18.7815 6.7907 18.3212C6.894 18.204 6.99671 18.0876 7.01896 18.0624C7.07943 17.9941 7.41774 17.618 7.8353 17.1549L8.20659 16.7431L10.5595 16.7341C13.1463 16.7242 13.0173 16.7317 13.7308 16.5489C14.7006 16.3005 15.6646 15.7484 16.3915 15.025C17.3503 14.0709 17.9383 12.8833 18.1193 11.5351C18.1777 11.0999 18.1756 6.65209 18.1167 6.20271C17.7944 3.74238 15.9902 1.73425 13.5898 1.16415C12.907 1.00199 13.0158 1.00666 9.77011 1.0007C8.13088 0.997675 6.66226 1.00477 6.50649 1.01645ZM12.159 2.20308C13.3549 2.29724 14.4132 2.76121 15.2703 3.56703C16.1466 4.39086 16.7016 5.49871 16.8366 6.69357C16.8575 6.87901 16.864 7.61227 16.8574 9.04014C16.8487 10.893 16.8425 11.1431 16.7999 11.3597C16.6573 12.0839 16.4073 12.71 16.0352 13.2747C15.827 13.5906 15.642 13.8151 15.357 14.0974C15.2297 14.2235 15.1292 14.3388 15.1338 14.3536C15.1383 14.3685 15.1337 14.3722 15.1234 14.362C15.1132 14.3518 15.0121 14.414 14.8987 14.5002C14.3054 14.9514 13.627 15.274 12.933 15.435C12.4612 15.5444 12.2736 15.5529 10.3095 15.5537L8.40802 15.5545L8.25968 15.7339C8.17809 15.8326 8.09895 15.9265 8.08385 15.9426C8.05134 15.9773 7.43698 16.6961 6.87159 17.361C6.24546 18.0973 6.03311 18.3213 5.9003 18.3856C5.80689 18.4309 5.76932 18.437 5.72665 18.4142C5.61596 18.3549 5.60919 18.2365 5.62928 16.7137L5.6483 15.2707L5.32167 15.1261C4.73446 14.866 4.25188 14.5367 3.79473 14.0839C2.97553 13.2726 2.47094 12.2388 2.32715 11.0772C2.28168 10.7098 2.29047 6.95312 2.33764 6.59917C2.65524 4.21608 4.60413 2.37403 6.98722 2.20446C7.43328 2.17271 11.7588 2.17155 12.159 2.20308ZM9.34473 4.18973C9.28666 4.21312 9.22827 4.35499 9.24661 4.42811C9.27541 4.54288 9.38023 4.60321 9.55123 4.60346C9.76428 4.60378 10.1413 4.64961 10.4579 4.71372C11.879 5.00138 12.9593 5.93423 13.4362 7.28542C13.6047 7.76258 13.6943 8.2395 13.7253 8.82326C13.742 9.13821 13.7499 9.17891 13.8056 9.23458C13.8887 9.31771 14.0147 9.31582 14.1003 9.23016C14.1612 9.16934 14.1665 9.14363 14.1663 8.91324C14.1656 8.08436 13.9339 7.13564 13.5683 6.46431C13.2679 5.91292 12.779 5.35573 12.2977 5.01651C11.7016 4.59631 10.9614 4.31863 10.1531 4.21193C9.85993 4.17323 9.41605 4.16104 9.34473 4.18973ZM6.15268 4.72141C5.93388 4.7996 5.52042 5.09939 5.23865 5.38422C4.89869 5.72787 4.7439 6.1017 4.80291 6.43669C4.87183 6.82798 5.45068 8.12592 5.87001 8.82952C6.17779 9.34592 6.63941 10.0078 6.711 10.0352C6.73203 10.0433 6.74924 10.0661 6.74924 10.0859C6.74924 10.1058 6.79172 10.1684 6.84364 10.225C6.89557 10.2817 6.93805 10.3372 6.93805 10.3484C6.93805 10.3595 6.95625 10.3838 6.9785 10.4022C7.0123 10.4303 7.01896 10.4264 7.01896 10.3785C7.01896 10.3471 7.0311 10.3213 7.04594 10.3213C7.06077 10.3213 7.07291 10.3633 7.07291 10.4147C7.07291 10.4956 7.10619 10.543 7.3224 10.7699C7.96708 11.4464 8.44133 11.8494 9.16324 12.3341C9.45235 12.5283 9.59986 12.6189 9.9724 12.8312C10.3764 13.0614 11.0163 13.3569 11.6177 13.5908C11.9157 13.7067 12.0033 13.7292 12.2014 13.7402C12.4769 13.7554 12.6253 13.7153 12.8635 13.5611C13.1603 13.369 13.6108 12.8505 13.7896 12.495C13.9782 12.1202 13.8546 11.8367 13.3327 11.447C13.1905 11.3409 12.9953 11.1914 12.8989 11.1148C12.6458 10.9139 12.3587 10.7231 12.3332 10.7389C12.321 10.7464 12.3043 10.7349 12.2961 10.7133C12.2878 10.6917 12.2068 10.6365 12.1162 10.5908L11.9514 10.5076L11.9599 10.61C11.9697 10.7288 12.0375 10.7518 12.0628 10.645C12.0745 10.5953 12.0829 10.5885 12.0947 10.6191C12.1145 10.6707 12.0576 10.7529 12.002 10.7529C11.9529 10.7529 11.9279 10.6972 11.9279 10.5881C11.9279 10.4987 11.8874 10.4754 11.6784 10.4447L11.5503 10.4259L11.5454 10.5692L11.5406 10.7124L11.5304 10.5843C11.5223 10.4809 11.5106 10.4562 11.4701 10.4562C11.3692 10.4562 11.3345 10.4874 11.3345 10.5782C11.3345 10.6273 11.3271 10.6867 11.3181 10.7102C11.2953 10.7696 11.2192 10.7635 11.1789 10.6989C11.1375 10.6326 11.167 10.6271 11.2151 10.6922C11.2651 10.7599 11.3137 10.702 11.3027 10.5877L11.294 10.4966L11.2333 10.5573C11.2 10.5907 11.1616 10.618 11.1481 10.618C11.1345 10.618 11.0546 10.7095 10.9705 10.8213C10.7343 11.1351 10.6049 11.2363 10.3901 11.2752C10.1443 11.3197 9.24305 10.9372 8.86377 10.6275C8.73268 10.5204 8.72543 10.519 8.71027 10.5978C8.70137 10.644 8.6977 10.6385 8.6949 10.575C8.69287 10.5291 8.66695 10.4695 8.63728 10.4427C8.58388 10.3944 8.58334 10.3956 8.58334 10.5644C8.58334 10.7834 8.56289 10.7653 8.55362 10.5381C8.54663 10.3671 8.54385 10.3612 8.40042 10.2145C7.97957 9.78406 7.59848 9.17244 7.34969 8.52824C7.1922 8.12045 7.25446 7.95406 7.70003 7.59223C8.03807 7.31768 8.11289 7.19506 8.10847 6.92284C8.10348 6.61436 8.00379 6.42768 7.39509 5.58705C7.003 5.04553 6.7972 4.82341 6.60807 4.73756C6.47575 4.67752 6.29358 4.67105 6.15268 4.72141ZM9.70146 5.42467C9.65971 5.4664 9.63525 5.52169 9.63525 5.57423C9.63525 5.67587 9.7399 5.79001 9.83306 5.79001C9.96617 5.79001 10.4917 5.89526 10.7006 5.96376C10.9344 6.04039 11.2788 6.20727 11.454 6.32878C12.1091 6.78331 12.5181 7.61192 12.5207 8.49031C12.5211 8.62687 12.5338 8.6847 12.5748 8.73679C12.6724 8.86088 12.8591 8.85444 12.9289 8.72451C12.9718 8.64468 12.964 8.27991 12.9127 7.96126C12.6915 6.58898 11.7568 5.6736 10.3116 5.41383C9.89518 5.33901 9.78516 5.34095 9.70146 5.42467ZM10.1304 6.59893C10.056 6.62898 9.98588 6.72939 9.98588 6.80597C9.98588 6.83893 10.0132 6.89724 10.0466 6.93557C10.0974 6.99391 10.1475 7.01122 10.3541 7.04176C10.9504 7.12995 11.2248 7.40534 11.3238 8.0152C11.3478 8.16355 11.3837 8.31074 11.4034 8.34229C11.4496 8.41622 11.5653 8.44476 11.66 8.40554C11.7659 8.36166 11.8023 8.25391 11.7801 8.05011C11.6967 7.28653 11.3004 6.801 10.6332 6.64505C10.3927 6.58881 10.1994 6.57109 10.1304 6.59893ZM7.35404 10.0482C7.36747 10.07 7.12755 10.0569 7.10212 10.0345C7.09594 10.0291 7.14681 10.0246 7.21516 10.0246C7.28353 10.0246 7.346 10.0352 7.35404 10.0482ZM8.01469 10.0343C8.00851 10.0396 7.96703 10.0522 7.92253 10.0621C7.86343 10.0753 7.85253 10.0728 7.88207 10.0528C7.91848 10.0282 8.04174 10.011 8.01469 10.0343ZM8.11751 10.0409C8.10855 10.0499 8.08527 10.0508 8.06583 10.043C8.0443 10.0344 8.0507 10.028 8.08212 10.0267C8.11055 10.0256 8.12646 10.032 8.11751 10.0409ZM8.25161 10.1123C8.34666 10.2166 8.36756 10.2846 8.36756 10.4895C8.36756 10.6928 8.3424 10.7529 8.25717 10.7529C8.19456 10.7529 8.17876 10.6984 8.17876 10.4829C8.17876 10.351 8.16665 10.2861 8.13639 10.2558C8.11306 10.2325 8.10656 10.2134 8.12193 10.2134C8.17331 10.2134 8.20573 10.3162 8.20573 10.4792C8.20573 10.663 8.2231 10.7259 8.27392 10.7259C8.32508 10.7259 8.34903 10.582 8.32713 10.4062C8.30539 10.2315 8.27694 10.1651 8.19583 10.0994C8.16419 10.0738 8.15136 10.0525 8.16732 10.0522C8.18326 10.0519 8.22121 10.0789 8.25161 10.1123ZM6.97203 10.1751C6.94673 10.2282 6.92186 10.2593 6.91685 10.2442C6.90838 10.2188 6.98565 10.0786 7.00815 10.0786C7.01362 10.0786 6.99736 10.122 6.97203 10.1751ZM7.47487 10.1711C7.46778 10.1782 7.4459 10.1572 7.42624 10.1245C7.39212 10.0677 7.39271 10.0672 7.43916 10.1116C7.46589 10.1373 7.48197 10.164 7.47487 10.1711ZM7.80061 10.1466C7.78184 10.1692 7.76094 10.1822 7.75414 10.1754C7.73545 10.1567 7.77345 10.1055 7.80603 10.1055C7.82394 10.1055 7.82189 10.121 7.80061 10.1466ZM8.0572 10.1862C8.06664 10.2014 8.05582 10.206 8.03182 10.1968C7.9851 10.1788 7.97655 10.1595 8.01534 10.1595C8.02931 10.1595 8.04813 10.1715 8.0572 10.1862ZM7.25189 10.2575C7.18627 10.3232 7.16647 10.3739 7.17953 10.4427C7.18233 10.4575 7.17011 10.4554 7.15234 10.4379C7.12728 10.4133 7.13397 10.3836 7.18206 10.3057L7.24413 10.2053L7.172 10.2191C7.13233 10.2267 7.09988 10.2225 7.09988 10.2097C7.09988 10.1969 7.15007 10.1865 7.21143 10.1865L7.32302 10.1865L7.25189 10.2575ZM7.46106 10.2518C7.45297 10.2729 7.42673 10.2977 7.40275 10.3069C7.36693 10.3206 7.36803 10.3138 7.40901 10.2685C7.46775 10.2036 7.48121 10.1993 7.46106 10.2518ZM7.7909 10.6102C7.85995 10.7032 8.03368 10.7566 8.07484 10.6974C8.09814 10.6639 8.10043 10.6642 8.09107 10.6989C8.07559 10.7565 7.94454 10.7647 7.86556 10.7129C7.75832 10.6426 7.69299 10.5117 7.69717 10.3753L7.70087 10.2539L7.71794 10.3944C7.72733 10.4716 7.76015 10.5687 7.7909 10.6102ZM7.8576 10.3685C7.84757 10.4429 7.84129 10.4531 7.8339 10.407C7.82464 10.3493 7.84131 10.2674 7.86232 10.2674C7.86723 10.2674 7.8651 10.3129 7.8576 10.3685ZM7.26171 10.4562C7.26171 10.471 7.24885 10.4831 7.23315 10.4831C7.21745 10.4831 7.21208 10.471 7.22125 10.4562C7.23042 10.4413 7.24326 10.4292 7.24982 10.4292C7.25637 10.4292 7.26171 10.4413 7.26171 10.4562ZM8.08269 10.6231C8.10461 10.6482 8.10186 10.6492 8.07087 10.6272C8.04862 10.6114 7.99837 10.5908 7.95921 10.5815C7.92004 10.5722 7.88172 10.5481 7.874 10.528C7.85804 10.4864 8.03276 10.5661 8.08269 10.6231ZM7.51439 10.5853C7.52159 10.5969 7.50408 10.6064 7.47552 10.6064C7.44693 10.6064 7.42354 10.5969 7.42354 10.5853C7.42354 10.5736 7.44102 10.5641 7.46241 10.5641C7.4838 10.5641 7.50716 10.5736 7.51439 10.5853ZM7.426 10.7508C7.40509 10.764 7.3717 10.7686 7.35182 10.761C7.29478 10.7391 7.30929 10.7259 7.38983 10.7263C7.4438 10.7266 7.45364 10.7333 7.426 10.7508ZM11.6508 10.7422C11.6419 10.7511 11.6186 10.7521 11.5992 10.7443C11.5776 10.7357 11.584 10.7293 11.6155 10.728C11.6439 10.7269 11.6598 10.7332 11.6508 10.7422Z" fill="rgb(0,0,0)" fill-rule="evenodd" />
</svg>
