<svg viewBox="0 0 17.162 18" xmlns="http://www.w3.org/2000/svg" xmlns:xlink="http://www.w3.org/1999/xlink" width="17.162018" height="18.000000" fill="none" customFrame="#000000">
	<path id="image 18 (Traced)" d="M5.50649 0.016448C3.39396 0.174963 1.51736 1.4563 0.597316 3.36848C0.297684 3.99121 0.130808 4.54597 0.0455226 5.20271C-0.0138159 5.65988 -0.0157309 10.0772 0.04323 10.5243C0.193815 11.666 0.628631 12.6787 1.3497 13.5672C1.56073 13.8273 2.00156 14.2595 2.03482 14.2389C2.05 14.2295 2.05486 14.2341 2.04563 14.249C2.00911 14.3081 2.70736 14.8083 3.15993 15.0472C3.46959 15.2107 3.69929 15.312 3.96909 15.4043L4.14441 15.4642L4.15859 16.4453C4.17354 17.4785 4.17632 17.5021 4.30753 17.7096C4.43732 17.9149 4.65758 18.0265 4.87009 17.9946C5.15133 17.9524 5.38504 17.7815 5.7907 17.3212C5.894 17.204 5.99671 17.0876 6.01896 17.0624C6.07943 16.9941 6.41774 16.618 6.8353 16.1549L7.20659 15.7431L9.55947 15.7341C12.1463 15.7242 12.0173 15.7317 12.7308 15.5489C13.7006 15.3005 14.6646 14.7484 15.3915 14.025C16.3503 13.0709 16.9383 11.8833 17.1193 10.5351C17.1777 10.0999 17.1756 5.65209 17.1167 5.20271C16.7944 2.74238 14.9902 0.734255 12.5898 0.164147C11.907 0.00199112 12.0158 0.00665714 8.77011 0.000696318C7.13088 -0.00232455 5.66226 0.00476908 5.50649 0.016448ZM11.159 1.20308C12.3549 1.29724 13.4132 1.76121 14.2703 2.56703C15.1466 3.39086 15.7016 4.49871 15.8366 5.69357C15.8575 5.87901 15.864 6.61227 15.8574 8.04014C15.8487 9.89304 15.8425 10.1431 15.7999 10.3597C15.6573 11.0839 15.4073 11.71 15.0352 12.2747C14.827 12.5906 14.642 12.8151 14.357 13.0974C14.2297 13.2235 14.1292 13.3388 14.1338 13.3536C14.1383 13.3685 14.1337 13.3722 14.1234 13.362C14.1132 13.3518 14.0121 13.414 13.8987 13.5002C13.3054 13.9514 12.627 14.274 11.933 14.435C11.4612 14.5444 11.2736 14.5529 9.30955 14.5537L7.40802 14.5545L7.25968 14.7339C7.17809 14.8326 7.09895 14.9265 7.08384 14.9426C7.05134 14.9773 6.43698 15.6961 5.87159 16.361C5.24546 17.0973 5.03311 17.3213 4.9003 17.3856C4.80689 17.4309 4.76932 17.437 4.72665 17.4142C4.61596 17.3549 4.60919 17.2365 4.62928 15.7137L4.6483 14.2707L4.32167 14.1261C3.73446 13.866 3.25188 13.5367 2.79473 13.0839C1.97553 12.2726 1.47094 11.2388 1.32715 10.0772C1.28168 9.70984 1.29047 5.95312 1.33764 5.59917C1.65524 3.21608 3.60413 1.37403 5.98722 1.20446C6.43328 1.17271 10.7588 1.17155 11.159 1.20308ZM8.34473 3.18973C8.28666 3.21312 8.22827 3.35499 8.24661 3.42811C8.27541 3.54288 8.38023 3.60321 8.55123 3.60346C8.76428 3.60378 9.14127 3.64961 9.4579 3.71372C10.879 4.00138 11.9593 4.93423 12.4362 6.28542C12.6047 6.76258 12.6943 7.2395 12.7253 7.82326C12.742 8.13821 12.7499 8.17891 12.8056 8.23458C12.8887 8.31771 13.0147 8.31582 13.1003 8.23016C13.1612 8.16934 13.1665 8.14363 13.1663 7.91324C13.1656 7.08436 12.9339 6.13564 12.5683 5.46431C12.2679 4.91292 11.779 4.35573 11.2977 4.01651C10.7016 3.59631 9.96138 3.31863 9.15308 3.21193C8.85993 3.17323 8.41605 3.16104 8.34473 3.18973ZM5.15268 3.72141C4.93388 3.7996 4.52042 4.09939 4.23865 4.38422C3.89869 4.72787 3.7439 5.1017 3.80291 5.43669C3.87183 5.82798 4.45068 7.12592 4.87001 7.82952C5.17779 8.34592 5.63941 9.00776 5.711 9.03522C5.73203 9.04328 5.74924 9.0661 5.74924 9.08593C5.74924 9.10575 5.79172 9.16835 5.84364 9.22502C5.89557 9.28172 5.93805 9.33722 5.93805 9.34836C5.93805 9.35953 5.95625 9.38375 5.9785 9.40223C6.0123 9.43028 6.01896 9.42639 6.01896 9.37855C6.01896 9.34707 6.0311 9.32131 6.04594 9.32131C6.06077 9.32131 6.07291 9.36333 6.07291 9.41469C6.07291 9.49563 6.10619 9.54299 6.3224 9.76988C6.96708 10.4464 7.44133 10.8494 8.16324 11.3341C8.45235 11.5283 8.59986 11.6189 8.9724 11.8312C9.37644 12.0614 10.0163 12.3569 10.6177 12.5908C10.9157 12.7067 11.0033 12.7292 11.2014 12.7402C11.4769 12.7554 11.6253 12.7153 11.8635 12.5611C12.1603 12.369 12.6108 11.8505 12.7896 11.495C12.9782 11.1202 12.8546 10.8367 12.3327 10.447C12.1905 10.3409 11.9953 10.1914 11.8989 10.1148C11.6458 9.91389 11.3587 9.72314 11.3332 9.73895C11.321 9.74642 11.3043 9.73487 11.2961 9.71327C11.2878 9.69166 11.2068 9.63653 11.1162 9.59079L10.9514 9.50761L10.9599 9.61002C10.9697 9.72878 11.0375 9.75181 11.0628 9.64498C11.0745 9.59529 11.0829 9.5885 11.0947 9.61914C11.1145 9.67073 11.0576 9.75286 11.002 9.75286C10.9529 9.75286 10.9279 9.69719 10.9279 9.58815C10.9279 9.49868 10.8874 9.4754 10.6784 9.44471L10.5503 9.42588L10.5454 9.56916L10.5406 9.71241L10.5304 9.58429C10.5223 9.4809 10.5106 9.45617 10.4701 9.45617C10.3692 9.45617 10.3345 9.4874 10.3345 9.57822C10.3345 9.62734 10.3271 9.68673 10.3181 9.71019C10.2953 9.76964 10.2192 9.76349 10.1789 9.69892C10.1375 9.63257 10.167 9.62707 10.2151 9.69218C10.2651 9.75988 10.3137 9.70202 10.3027 9.58771L10.294 9.49663L10.2333 9.55732C10.2 9.59071 10.1616 9.618 10.1481 9.618C10.1345 9.618 10.0546 9.70949 9.97047 9.82132C9.73433 10.1351 9.60487 10.2363 9.39006 10.2752C9.14435 10.3197 8.24305 9.93719 7.86377 9.62747C7.73268 9.52042 7.72543 9.51902 7.71027 9.59777C7.70137 9.64395 7.6977 9.6385 7.6949 9.57498C7.69287 9.52908 7.66695 9.46952 7.63728 9.44269C7.58388 9.39435 7.58334 9.39557 7.58334 9.56438C7.58334 9.78337 7.5629 9.7653 7.55362 9.53811C7.54663 9.36711 7.54385 9.3612 7.40042 9.2145C6.97957 8.78406 6.59848 8.17244 6.34969 7.52824C6.1922 7.12045 6.25446 6.95406 6.70003 6.59223C7.03807 6.31768 7.11289 6.19506 7.10847 5.92284C7.10348 5.61436 7.00379 5.42768 6.39509 4.58705C6.003 4.04553 5.7972 3.82341 5.60807 3.73756C5.47575 3.67752 5.29358 3.67105 5.15268 3.72141ZM8.70146 4.42467C8.65971 4.4664 8.63525 4.52169 8.63525 4.57423C8.63525 4.67587 8.7399 4.79001 8.83306 4.79001C8.96617 4.79001 9.49166 4.89526 9.70064 4.96376C9.93441 5.04039 10.2788 5.20727 10.454 5.32878C11.1091 5.78331 11.5181 6.61192 11.5207 7.49031C11.5211 7.62687 11.5338 7.6847 11.5748 7.73679C11.6724 7.86088 11.8591 7.85444 11.9289 7.72451C11.9718 7.64468 11.964 7.27991 11.9127 6.96126C11.6915 5.58898 10.7568 4.6736 9.31157 4.41383C8.89518 4.33901 8.78516 4.34095 8.70146 4.42467ZM9.13037 5.59893C9.05599 5.62898 8.98588 5.72939 8.98588 5.80597C8.98588 5.83893 9.01318 5.89724 9.04657 5.93557C9.09736 5.99391 9.1475 6.01122 9.35408 6.04176C9.95043 6.12995 10.2248 6.40534 10.3238 7.0152C10.3478 7.16355 10.3837 7.31074 10.4034 7.34229C10.4496 7.41622 10.5653 7.44476 10.66 7.40554C10.7659 7.36166 10.8023 7.25391 10.7801 7.05011C10.6967 6.28653 10.3004 5.801 9.63321 5.64505C9.39273 5.58881 9.19937 5.57109 9.13037 5.59893ZM6.35404 9.04822C6.36747 9.06996 6.12755 9.0569 6.10212 9.03452C6.09594 9.02907 6.14681 9.02462 6.21516 9.02462C6.28353 9.02462 6.346 9.03525 6.35404 9.04822ZM7.01469 9.0343C7.00851 9.03964 6.96703 9.05216 6.92253 9.06211C6.86343 9.07533 6.85253 9.07282 6.88207 9.05283C6.91848 9.02818 7.04174 9.01097 7.01469 9.0343ZM7.11751 9.04091C7.10855 9.04986 7.08527 9.05084 7.06583 9.04304C7.0443 9.03444 7.0507 9.02804 7.08212 9.02675C7.11055 9.02559 7.12646 9.03195 7.11751 9.04091ZM7.25161 9.11228C7.34666 9.21663 7.36756 9.28463 7.36756 9.48946C7.36756 9.6928 7.3424 9.75286 7.25717 9.75286C7.19457 9.75286 7.17876 9.69843 7.17876 9.48287C7.17876 9.35095 7.16665 9.28609 7.13639 9.2558C7.11306 9.23249 7.10656 9.21342 7.12193 9.21342C7.17331 9.21342 7.20573 9.31624 7.20573 9.47915C7.20573 9.66299 7.2231 9.72589 7.27392 9.72589C7.32508 9.72589 7.34903 9.582 7.32713 9.40617C7.30539 9.23155 7.27694 9.16509 7.19583 9.09939C7.16419 9.07376 7.15136 9.05251 7.16732 9.05218C7.18326 9.05186 7.22121 9.07889 7.25161 9.11228ZM5.97203 9.17512C5.94673 9.22823 5.92186 9.2593 5.91685 9.2442C5.90838 9.21879 5.98565 9.07856 6.00815 9.07856C6.01362 9.07856 5.99736 9.12201 5.97203 9.17512ZM6.47487 9.1711C6.46778 9.1782 6.4459 9.15724 6.42624 9.12455C6.39212 9.06772 6.39271 9.06715 6.43916 9.11163C6.46589 9.13725 6.48197 9.16401 6.47487 9.1711ZM6.80061 9.14664C6.78184 9.16924 6.76094 9.18219 6.75414 9.17542C6.73545 9.1567 6.77345 9.10553 6.80603 9.10553C6.82394 9.10553 6.82189 9.12102 6.80061 9.14664ZM7.0572 9.18615C7.06664 9.20142 7.05582 9.20595 7.03182 9.19675C6.9851 9.17882 6.97655 9.15948 7.01534 9.15948C7.02931 9.15948 7.04813 9.17148 7.0572 9.18615ZM6.25189 9.25755C6.18627 9.32317 6.16647 9.37388 6.17953 9.44269C6.18233 9.45752 6.17011 9.45536 6.15234 9.43791C6.12728 9.41331 6.13397 9.38359 6.18206 9.30575L6.24413 9.20533L6.172 9.21911C6.13233 9.22672 6.09988 9.22246 6.09988 9.20967C6.09988 9.19692 6.15007 9.18645 6.21143 9.18645L6.32302 9.18645L6.25189 9.25755ZM6.46106 9.2518C6.45297 9.2729 6.42673 9.29771 6.40275 9.30691C6.36693 9.32064 6.36803 9.31379 6.40901 9.26853C6.46775 9.20361 6.48121 9.19929 6.46106 9.2518ZM6.7909 9.61016C6.85995 9.70318 7.03368 9.75656 7.07484 9.69741C7.09814 9.66394 7.10043 9.66415 7.09107 9.69892C7.07559 9.75653 6.94454 9.76465 6.86556 9.71289C6.75832 9.64263 6.69299 9.51168 6.69717 9.37525L6.70087 9.25388L6.71794 9.39438C6.72733 9.47163 6.76015 9.56873 6.7909 9.61016ZM6.8576 9.36851C6.84757 9.44293 6.84129 9.4531 6.8339 9.407C6.82464 9.34928 6.84131 9.26737 6.86232 9.26737C6.86723 9.26737 6.8651 9.3129 6.8576 9.36851ZM6.26171 9.45617C6.26171 9.47101 6.24885 9.48314 6.23315 9.48314C6.21745 9.48314 6.21208 9.47101 6.22125 9.45617C6.23042 9.44134 6.24326 9.4292 6.24982 9.4292C6.25637 9.4292 6.26171 9.44134 6.26171 9.45617ZM7.08268 9.62313C7.10461 9.64818 7.10186 9.64916 7.07087 9.62717C7.04862 9.61139 6.99837 9.59084 6.95921 9.58151C6.92004 9.57215 6.88172 9.54809 6.874 9.528C6.85804 9.48641 7.03276 9.56608 7.08268 9.62313ZM6.51439 9.58526C6.52159 9.59691 6.50408 9.60643 6.47552 9.60643C6.44693 9.60643 6.42354 9.59691 6.42354 9.58526C6.42354 9.57361 6.44102 9.56406 6.46241 9.56406C6.4838 9.56406 6.50716 9.57361 6.51439 9.58526ZM6.426 9.75079C6.40509 9.764 6.3717 9.76859 6.35182 9.76095C6.29478 9.73908 6.30929 9.72586 6.38983 9.7263C6.4438 9.72659 6.45364 9.73326 6.426 9.75079ZM10.6508 9.74218C10.6419 9.75114 10.6186 9.75211 10.5992 9.74431C10.5776 9.73571 10.584 9.72932 10.6155 9.72802C10.6439 9.72686 10.6598 9.73323 10.6508 9.74218Z" fill="rgb(255,255,255)" fill-rule="evenodd" />
</svg>
